<svg width="54" height="88" viewBox="0 0 54 88" fill="none" xmlns="http://www.w3.org/2000/svg">
<path fill-rule="evenodd" clip-rule="evenodd" d="M14.3931 25.9746C11.7809 24.9422 8.95641 25.0014 6.26408 25.9493C14.6194 14.1111 29.9659 4.87883 43.7833 0C43.9244 0.230427 44.0701 0.467139 44.2197 0.710317C47.7545 6.45501 53.5102 15.8091 54 31.1996C48.2234 30.0295 42.1458 30.1736 36.1931 32.0201C30.8203 33.5416 26.1182 36.2371 22.1612 39.7488C22.3006 33.4808 19.4358 27.9678 14.3931 25.9746ZM28.4592 29.7C31.4819 29.7 33.9322 27.2376 33.9322 24.2C33.9322 21.1624 31.4819 18.7 28.4592 18.7C25.4366 18.7 22.9863 21.1624 22.9863 24.2C22.9863 27.2376 25.4366 29.7 28.4592 29.7Z" fill="#28622E"/>
<path d="M15.3309 84.9331C15.4349 85.2825 15.5434 85.6317 15.6565 85.9806C15.7391 86.2355 15.8238 86.4892 15.9105 86.7415C16.4116 87.5079 17.1885 88 18.0607 88C19.572 88 20.7971 86.5225 20.7971 84.7C20.7971 84.3751 20.7582 84.0612 20.6856 83.7646C20.6289 83.5935 20.5735 83.4219 20.5195 83.2499C19.5908 80.2923 19.0708 77.2098 18.9381 74.1106C19.1904 74.1625 19.4453 74.209 19.7026 74.25C38.7591 77.2825 50.5937 61.2111 53.0875 45.1C53.3806 43.2064 53.6 41.3803 53.7534 39.6195C53.8773 38.1965 53.958 36.8162 53.9996 35.477C48.6433 34.4938 43.0735 34.7808 37.6616 36.5522C22.8895 41.3872 13.6469 55.8565 13.4898 71.9717C13.4484 76.2264 14.0403 80.5959 15.3309 84.9331Z" fill="#84B440"/>
<path d="M10.2231 58.0347C10.9175 56.0244 11.7444 54.0645 12.6993 52.177C14.0083 49.5897 15.5576 47.1386 17.3355 44.8806C17.6345 43.8352 17.8385 42.7765 17.9438 41.7193C18.5594 36.5151 16.1747 31.3704 12.6903 30.3252C8.87926 28.7993 3.50947 32.1375 0.904078 37.0977C0.315217 39.3412 0 41.6448 0 44C0 46.4281 0.290246 49.0798 0.870736 51.7732C1.35385 54.0148 2.03801 56.2853 2.92321 58.4798C4.20378 61.6545 5.90508 64.6702 8.02711 67.2094C8.45953 64.0887 9.19647 61.0067 10.2231 58.0347Z" fill="#28622E"/>
</svg>
