<svg width="242" height="58" viewBox="0 0 242 58" fill="none" xmlns="http://www.w3.org/2000/svg">
<path fill-rule="evenodd" clip-rule="evenodd" d="M9.59539 17.1196C7.85395 16.4392 5.97094 16.4782 4.17605 17.103C9.74627 9.30048 19.9772 3.21559 29.1889 0C29.2829 0.151873 29.38 0.307887 29.4798 0.468164C31.8363 4.25444 35.6735 10.4196 36 20.5634C32.149 19.7922 28.0972 19.8872 24.1287 21.1042C20.5469 22.107 17.4121 23.8835 14.7741 26.1981C14.867 22.0669 12.9572 18.4333 9.59539 17.1196ZM18.9728 19.575C20.9879 19.575 22.6214 17.952 22.6214 15.95C22.6214 13.948 20.9879 12.325 18.9728 12.325C16.9577 12.325 15.3242 13.948 15.3242 15.95C15.3242 17.952 16.9577 19.575 18.9728 19.575Z" fill="#28622E"/>
<path d="M10.2206 55.9786C10.2899 56.2089 10.3623 56.439 10.4377 56.669C10.4927 56.8371 10.5492 57.0042 10.607 57.1705C10.9411 57.6757 11.459 58 12.0404 58C13.048 58 13.8648 57.0262 13.8648 55.825C13.8648 55.6109 13.8388 55.4039 13.7904 55.2085C13.7526 55.0957 13.7157 54.9826 13.6797 54.8693C13.0605 52.9199 12.7139 50.8883 12.6254 48.8456C12.7936 48.8798 12.9635 48.9105 13.1351 48.9375C25.8394 50.9362 33.7291 40.3437 35.3917 29.725C35.5871 28.4769 35.7334 27.2734 35.8356 26.1128C35.9182 25.175 35.972 24.2652 35.9998 23.3826C32.4289 22.7345 28.7156 22.9237 25.1077 24.0912C15.2597 27.2779 9.09791 36.8145 8.99323 47.4359C8.9656 50.2401 9.36018 53.12 10.2206 55.9786Z" fill="#84B440"/>
<path d="M6.81538 38.2501C7.27833 36.9252 7.82963 35.6334 8.46622 34.3894C9.33884 32.6841 10.3717 31.0686 11.557 29.5804C11.7563 28.8914 11.8923 28.1936 11.9625 27.4968C12.3729 24.0668 10.7831 20.6759 8.46023 19.987C5.91951 18.9813 2.33965 21.1815 0.602718 24.4507C0.210145 25.9294 0 27.4477 0 29C0 30.6003 0.193497 32.348 0.580491 34.1232C0.90257 35.6006 1.35868 37.0971 1.94881 38.5435C2.80252 40.6359 3.93672 42.6235 5.35141 44.2971C5.63969 42.2403 6.13098 40.209 6.81538 38.2501Z" fill="#28622E"/>
<path d="M59.916 37.068C61.452 37.14 63.036 37.152 64.668 37.104V37.176C64.716 37.944 64.728 38.748 64.704 39.588C64.68 40.404 64.572 41.172 64.38 41.892C61.932 41.868 59.436 41.904 56.892 42C54.372 42.072 51.948 42.012 49.62 41.82C49.62 39.732 49.596 37.668 49.548 35.628C49.5 33.564 49.464 31.512 49.44 29.472C49.416 27.432 49.416 25.392 49.44 23.352C49.464 21.312 49.536 19.26 49.656 17.196C50.592 17.148 51.6 17.112 52.68 17.088C53.784 17.04 54.888 17.004 55.992 16.98C57.096 16.956 58.164 16.932 59.196 16.908C60.228 16.884 61.14 16.872 61.932 16.872C62.724 16.872 63.36 16.884 63.84 16.908C64.32 16.932 64.56 16.956 64.56 16.98C64.68 17.82 64.704 18.672 64.632 19.536C64.584 20.4 64.56 21.252 64.56 22.092V22.128C63.792 22.296 63.012 22.404 62.22 22.452C61.452 22.476 60.672 22.488 59.88 22.488C59.088 22.464 58.296 22.452 57.504 22.452C56.712 22.452 55.92 22.488 55.128 22.56H55.02L54.984 22.596C55.008 23.292 54.972 24.012 54.876 24.756C54.804 25.476 54.852 26.16 55.02 26.808L55.056 26.844C55.776 26.892 56.508 26.916 57.252 26.916C57.996 26.916 58.74 26.928 59.484 26.952V26.988C59.604 27.804 59.64 28.62 59.592 29.436C59.544 30.252 59.532 31.104 59.556 31.992C59.196 32.088 58.788 32.148 58.332 32.172C57.876 32.172 57.432 32.172 57 32.172C56.592 32.172 56.22 32.184 55.884 32.208C55.548 32.232 55.32 32.292 55.2 32.388C55.08 33.084 55.032 33.864 55.056 34.728C55.104 35.592 55.152 36.312 55.2 36.888L55.236 36.924C56.82 36.924 58.38 36.972 59.916 37.068ZM73.432 22.092C73.096 22.164 72.832 22.296 72.64 22.488C72.592 22.536 72.544 22.62 72.496 22.74C72.472 22.836 72.448 22.908 72.424 22.956C72.376 23.028 72.328 23.448 72.28 24.216C72.256 24.984 72.232 25.896 72.208 26.952C72.184 28.008 72.172 29.112 72.172 30.264C72.172 31.392 72.208 32.376 72.28 33.216C72.352 33.912 72.532 34.596 72.82 35.268C73.132 35.916 73.636 36.336 74.332 36.528C74.86 36.576 75.352 36.504 75.808 36.312C76.288 36.096 76.648 35.748 76.888 35.268C77.152 34.716 77.26 34.14 77.212 33.54C77.188 32.916 77.236 32.304 77.356 31.704C77.692 31.752 78.064 31.764 78.472 31.74C78.904 31.716 79.336 31.704 79.768 31.704C80.2 31.704 80.62 31.716 81.028 31.74C81.46 31.764 81.844 31.824 82.18 31.92C82.588 33.168 82.696 34.416 82.504 35.664C82.312 36.888 81.892 37.992 81.244 38.976C80.596 39.96 79.744 40.776 78.688 41.424C77.656 42.048 76.48 42.372 75.16 42.396C74.296 42.516 73.408 42.516 72.496 42.396C71.584 42.3 70.732 42.072 69.94 41.712C69.148 41.328 68.476 40.8 67.924 40.128C67.396 39.456 67.084 38.616 66.988 37.608C66.94 36.744 66.904 35.844 66.88 34.908C66.856 33.972 66.832 32.928 66.808 31.776C66.808 30.6 66.808 29.28 66.808 27.816C66.832 26.328 66.856 24.612 66.88 22.668C66.832 22.26 66.844 21.852 66.916 21.444C67.012 21.012 67.132 20.616 67.276 20.256C67.492 19.632 67.756 19.056 68.068 18.528C68.404 18 68.8 17.532 69.256 17.124C69.52 16.932 69.808 16.776 70.12 16.656C70.432 16.512 70.756 16.392 71.092 16.296C72.196 15.936 73.288 15.792 74.368 15.864C75.448 15.936 76.456 16.188 77.392 16.62C78.352 17.028 79.216 17.58 79.984 18.276C80.752 18.972 81.364 19.776 81.82 20.688C82.276 21.576 82.552 22.548 82.648 23.604C82.744 24.66 82.6 25.74 82.216 26.844C81.328 27.036 80.452 27.108 79.588 27.06C78.748 26.988 77.872 26.868 76.96 26.7C76.888 26.244 76.84 25.728 76.816 25.152C76.816 24.576 76.756 24.048 76.636 23.568C76.516 23.064 76.288 22.656 75.952 22.344C75.64 22.032 75.136 21.888 74.44 21.912C74.128 21.96 73.792 22.02 73.432 22.092ZM97.8862 18.492C98.5822 19.116 99.0742 19.848 99.3622 20.688C99.5302 21.048 99.6502 21.42 99.7222 21.804C99.8182 22.164 99.8902 22.536 99.9382 22.92C99.9862 23.52 100.01 24.12 100.01 24.72C100.034 25.296 100.034 25.884 100.01 26.484C99.9382 27.756 99.9142 28.992 99.9382 30.192C99.9622 31.392 99.9262 32.616 99.8302 33.864L99.7222 35.052C99.6742 35.892 99.5422 36.744 99.3262 37.608C99.1102 38.448 98.7862 39.216 98.3542 39.912C97.9462 40.488 97.4062 40.956 96.7342 41.316C96.0862 41.652 95.3902 41.916 94.6462 42.108C93.9742 42.3 93.2902 42.42 92.5942 42.468C91.9222 42.516 91.2382 42.516 90.5422 42.468C90.0382 42.42 89.5462 42.348 89.0662 42.252C88.6102 42.18 88.1662 42.048 87.7342 41.856C87.3262 41.664 86.9542 41.424 86.6182 41.136C86.2822 40.824 86.0062 40.428 85.7902 39.948C85.4542 39.348 85.2262 38.712 85.1062 38.04C85.0102 37.344 84.9502 36.648 84.9262 35.952C84.8542 34.08 84.7702 32.208 84.6742 30.336C84.6022 28.44 84.6262 26.544 84.7462 24.648C84.7702 23.568 84.9022 22.488 85.1422 21.408C85.4062 20.304 85.9102 19.332 86.6542 18.492C86.8942 18.252 87.1702 18.036 87.4822 17.844C88.2742 17.46 89.1262 17.184 90.0382 17.016C90.9742 16.824 91.8982 16.752 92.8102 16.8C93.7462 16.848 94.6462 17.016 95.5102 17.304C96.3982 17.568 97.1902 17.964 97.8862 18.492ZM95.5102 31.2V29.472L95.4382 27.024C95.4382 27 95.4142 26.76 95.3662 26.304C95.3422 25.824 95.3182 25.38 95.2942 24.972C95.2462 24.3 95.0542 23.688 94.7182 23.136C94.4062 22.584 93.9742 22.176 93.4222 21.912C92.9422 21.72 92.4502 21.684 91.9462 21.804C91.4422 21.924 90.9982 22.128 90.6142 22.416C89.7742 23.064 89.2102 23.892 88.9222 24.9C88.7302 25.812 88.6102 26.772 88.5622 27.78C88.5382 28.788 88.5502 29.796 88.5982 30.804C88.7182 31.644 88.8022 32.508 88.8502 33.396C88.8982 34.26 89.0422 35.088 89.2822 35.88C89.5222 36.36 89.8702 36.732 90.3262 36.996C90.7822 37.26 91.2742 37.416 91.8022 37.464C92.3302 37.488 92.8582 37.416 93.3862 37.248C93.9142 37.056 94.3582 36.756 94.7182 36.348C94.9342 36.06 95.0902 35.832 95.1862 35.664C95.2822 35.472 95.3422 35.268 95.3662 35.052C95.3902 34.836 95.3902 34.584 95.3662 34.296C95.3662 33.984 95.3902 33.576 95.4382 33.072C95.4622 32.592 95.4742 32.172 95.4742 31.812C95.4982 31.452 95.5102 31.248 95.5102 31.2Z" fill="#28622E"/>
<path d="M118.025 34.296C118.025 34.896 117.953 35.484 117.809 36.06C117.785 36.348 117.725 36.66 117.629 36.996C117.485 37.572 117.209 38.304 116.801 39.192C116.969 39.384 117.125 39.576 117.269 39.768C117.413 39.936 117.485 40.104 117.485 40.272C117.485 40.608 117.389 40.872 117.197 41.064C117.005 41.256 116.777 41.448 116.513 41.64C116.321 41.76 116.081 41.892 115.793 42.036C115.505 42.204 115.229 42.288 114.965 42.288C114.821 42.288 114.593 42.144 114.281 41.856C113.993 41.568 113.777 41.328 113.633 41.136C113.489 41.304 113.273 41.46 112.985 41.604C112.697 41.748 112.373 41.868 112.013 41.964C111.653 42.06 111.269 42.132 110.861 42.18C110.453 42.228 110.069 42.24 109.709 42.216C109.109 42.168 108.569 42.096 108.089 42C107.633 41.88 107.201 41.736 106.793 41.568C106.409 41.376 106.037 41.16 105.677 40.92C105.341 40.68 104.993 40.392 104.633 40.056C104.033 39.48 103.577 38.856 103.265 38.184C102.977 37.488 102.773 36.756 102.653 35.988C102.533 35.196 102.473 34.38 102.473 33.54C102.473 32.7 102.473 31.836 102.473 30.948C102.473 30.108 102.473 29.22 102.473 28.284C102.473 27.324 102.485 26.364 102.509 25.404C102.557 24.42 102.629 23.448 102.725 22.488C102.845 21.528 103.025 20.616 103.265 19.752C103.433 19.248 103.733 18.792 104.165 18.384C104.597 17.952 105.125 17.58 105.749 17.268C106.397 16.956 107.117 16.716 107.909 16.548C108.701 16.38 109.565 16.296 110.501 16.296C111.341 16.296 112.085 16.332 112.733 16.404C113.381 16.452 113.969 16.608 114.497 16.872C115.025 17.136 115.505 17.544 115.937 18.096C116.369 18.624 116.789 19.368 117.197 20.328C117.605 21.624 117.881 22.992 118.025 24.432C118.169 25.872 118.241 27.312 118.241 28.752C118.241 29.496 118.229 30.132 118.205 30.66C118.205 31.164 118.181 31.776 118.133 32.496C118.085 33.096 118.049 33.696 118.025 34.296ZM111.293 33.936C111.485 33.744 111.713 33.648 111.977 33.648C112.121 33.648 112.253 33.72 112.373 33.864C112.493 33.984 112.601 34.14 112.697 34.332C112.817 34.5 112.925 34.692 113.021 34.908C113.141 35.124 113.273 35.304 113.417 35.448C113.441 35.328 113.465 35.172 113.489 34.98C113.513 34.764 113.537 34.548 113.561 34.332C113.585 34.092 113.609 33.876 113.633 33.684C113.657 33.468 113.681 33.3 113.705 33.18C113.729 32.916 113.741 32.604 113.741 32.244C113.765 31.884 113.777 31.512 113.777 31.128C113.777 30.72 113.765 30.336 113.741 29.976C113.741 29.592 113.741 29.268 113.741 29.004C113.741 28.164 113.717 27.432 113.669 26.808C113.645 26.184 113.585 25.44 113.489 24.576C113.417 23.712 113.165 23.016 112.733 22.488C112.301 21.936 111.521 21.66 110.393 21.66C109.697 21.66 109.145 21.696 108.737 21.768C108.353 21.816 108.041 21.936 107.801 22.128C107.585 22.32 107.429 22.608 107.333 22.992C107.261 23.352 107.201 23.832 107.153 24.432C107.105 24.936 107.057 25.404 107.009 25.836C106.985 26.244 106.961 26.652 106.937 27.06C106.937 27.444 106.925 27.852 106.901 28.284C106.901 28.692 106.901 29.148 106.901 29.652C106.901 29.988 106.889 30.432 106.865 30.984C106.865 31.536 106.865 32.112 106.865 32.712C106.865 33.312 106.889 33.9 106.937 34.476C106.985 35.028 107.069 35.484 107.189 35.844C107.453 36.564 107.873 37.08 108.449 37.392C109.049 37.704 109.709 37.86 110.429 37.86C110.549 37.86 110.657 37.86 110.753 37.86C110.849 37.86 110.957 37.848 111.077 37.824C110.789 37.536 110.525 37.26 110.285 36.996C110.093 36.756 109.913 36.516 109.745 36.276C109.601 36.012 109.529 35.772 109.529 35.556C109.529 35.22 109.661 34.992 109.925 34.872C110.189 34.752 110.453 34.596 110.717 34.404C110.909 34.284 111.101 34.128 111.293 33.936ZM135.345 17.592C135.801 17.64 136.173 17.748 136.461 17.916C136.605 20.988 136.653 24.096 136.605 27.24C136.557 30.36 136.365 33.468 136.029 36.564C135.837 38.148 135.237 39.492 134.229 40.596C133.221 41.7 131.853 42.336 130.125 42.504C129.117 42.6 128.073 42.552 126.993 42.36C125.913 42.192 124.929 41.88 124.041 41.424C123.177 40.944 122.445 40.32 121.845 39.552C121.269 38.76 120.957 37.812 120.909 36.708C120.909 33.54 120.945 30.348 121.017 27.132C121.089 23.916 121.101 20.724 121.053 17.556L121.017 17.52H121.053C121.413 17.52 121.809 17.508 122.241 17.484C122.697 17.46 123.153 17.448 123.609 17.448C124.065 17.448 124.509 17.472 124.941 17.52C125.373 17.544 125.769 17.604 126.129 17.7V17.736C125.865 23.544 125.973 29.436 126.453 35.412C126.621 35.988 126.921 36.408 127.353 36.672C127.809 36.936 128.277 37.056 128.757 37.032C129.237 37.008 129.681 36.84 130.089 36.528C130.497 36.216 130.761 35.784 130.881 35.232C131.001 32.352 131.061 29.424 131.061 26.448C131.085 23.472 131.133 20.592 131.205 17.808C131.517 17.784 131.913 17.748 132.393 17.7C132.897 17.628 133.401 17.58 133.905 17.556C134.409 17.532 134.889 17.544 135.345 17.592ZM150.029 37.068C151.565 37.14 153.149 37.152 154.781 37.104V37.176C154.829 37.944 154.841 38.748 154.817 39.588C154.793 40.404 154.685 41.172 154.493 41.892C152.045 41.868 149.549 41.904 147.005 42C144.485 42.072 142.061 42.012 139.733 41.82C139.733 39.732 139.709 37.668 139.661 35.628C139.613 33.564 139.577 31.512 139.553 29.472C139.529 27.432 139.529 25.392 139.553 23.352C139.577 21.312 139.649 19.26 139.769 17.196C140.705 17.148 141.713 17.112 142.793 17.088C143.897 17.04 145.001 17.004 146.105 16.98C147.209 16.956 148.277 16.932 149.309 16.908C150.341 16.884 151.253 16.872 152.045 16.872C152.837 16.872 153.473 16.884 153.953 16.908C154.433 16.932 154.673 16.956 154.673 16.98C154.793 17.82 154.817 18.672 154.745 19.536C154.697 20.4 154.673 21.252 154.673 22.092V22.128C153.905 22.296 153.125 22.404 152.333 22.452C151.565 22.476 150.785 22.488 149.993 22.488C149.201 22.464 148.409 22.452 147.617 22.452C146.825 22.452 146.033 22.488 145.241 22.56H145.133L145.097 22.596C145.121 23.292 145.085 24.012 144.989 24.756C144.917 25.476 144.965 26.16 145.133 26.808L145.169 26.844C145.889 26.892 146.621 26.916 147.365 26.916C148.109 26.916 148.853 26.928 149.597 26.952V26.988C149.717 27.804 149.753 28.62 149.705 29.436C149.657 30.252 149.645 31.104 149.669 31.992C149.309 32.088 148.901 32.148 148.445 32.172C147.989 32.172 147.545 32.172 147.113 32.172C146.705 32.172 146.333 32.184 145.997 32.208C145.661 32.232 145.433 32.292 145.313 32.388C145.193 33.084 145.145 33.864 145.169 34.728C145.217 35.592 145.265 36.312 145.313 36.888L145.349 36.924C146.933 36.924 148.493 36.972 150.029 37.068ZM169.773 29.724C169.821 29.82 169.905 29.94 170.025 30.084C170.409 30.564 170.769 31.044 171.105 31.524C171.465 31.98 171.765 32.472 172.005 33C172.269 33.504 172.449 34.068 172.545 34.692C172.641 35.316 172.617 36.012 172.473 36.78C172.281 37.908 171.909 38.832 171.357 39.552C170.829 40.248 170.181 40.788 169.413 41.172C168.645 41.556 167.793 41.82 166.857 41.964C165.921 42.084 164.949 42.144 163.941 42.144C162.957 42.168 161.961 42.144 160.953 42.072C159.969 42 159.045 41.952 158.181 41.928C158.037 41.928 157.893 41.928 157.749 41.928C157.629 41.928 157.509 41.904 157.389 41.856C157.245 37.704 157.209 33.588 157.281 29.508C157.353 25.404 157.353 21.264 157.281 17.088L157.317 17.052C158.277 16.788 159.297 16.584 160.377 16.44C161.457 16.296 162.525 16.248 163.581 16.296C164.637 16.344 165.645 16.5 166.605 16.764C167.589 17.028 168.453 17.46 169.197 18.06C169.941 18.636 170.529 19.392 170.961 20.328C171.393 21.24 171.609 22.368 171.609 23.712C171.609 24.72 171.429 25.704 171.069 26.664C170.733 27.624 170.325 28.512 169.845 29.328C169.749 29.496 169.725 29.628 169.773 29.724ZM165.777 36.708C166.113 36.564 166.401 36.348 166.641 36.06C166.905 35.7 167.025 35.268 167.001 34.764C167.001 34.26 166.917 33.804 166.749 33.396C166.605 33.108 166.389 32.856 166.101 32.64C165.813 32.4 165.513 32.244 165.201 32.172C164.745 32.052 164.277 31.992 163.797 31.992C163.317 31.968 162.849 31.932 162.393 31.884C162.297 32.244 162.213 32.652 162.141 33.108C162.069 33.564 162.021 34.032 161.997 34.512C161.997 34.968 162.033 35.412 162.105 35.844C162.177 36.276 162.309 36.636 162.501 36.924L162.573 36.96C162.909 36.96 163.257 36.972 163.617 36.996C164.001 36.996 164.373 36.984 164.733 36.96C165.117 36.912 165.465 36.828 165.777 36.708ZM165.813 26.628C166.149 26.436 166.413 26.16 166.605 25.8C166.773 25.512 166.917 25.176 167.037 24.792C167.157 24.408 167.121 24.024 166.929 23.64C166.737 23.256 166.485 22.968 166.173 22.776C165.885 22.56 165.549 22.404 165.165 22.308C164.685 22.212 164.169 22.164 163.617 22.164C163.089 22.14 162.645 22.224 162.285 22.416C162.333 22.968 162.309 23.64 162.213 24.432C162.141 25.224 162.213 26.04 162.429 26.88C162.789 26.928 163.173 26.964 163.581 26.988C163.989 27.012 164.385 27 164.769 26.952C165.153 26.904 165.501 26.796 165.813 26.628ZM190.565 39.048C191.093 39.96 191.537 40.908 191.897 41.892H191.933C191.093 41.892 190.157 41.928 189.125 42C188.093 42.048 187.037 42.036 185.957 41.964H185.921C185.681 41.412 185.381 40.752 185.021 39.984C184.661 39.216 184.265 38.412 183.833 37.572C183.401 36.732 182.933 35.904 182.429 35.088C181.925 34.272 181.421 33.552 180.917 32.928L180.845 32.82C180.773 33.372 180.737 34.056 180.737 34.872C180.737 35.664 180.749 36.492 180.773 37.356C180.821 38.196 180.869 39 180.917 39.768C180.965 40.536 181.001 41.148 181.025 41.604C180.617 41.772 180.077 41.88 179.405 41.928C178.757 41.976 178.109 42 177.461 42C176.813 42.024 176.225 42.024 175.697 42C175.193 41.976 174.881 41.976 174.761 42C174.809 42 174.845 41.676 174.869 41.028C174.893 40.356 174.905 39.48 174.905 38.4C174.905 37.32 174.905 36.084 174.905 34.692C174.905 33.276 174.893 31.824 174.869 30.336C174.869 28.824 174.845 27.336 174.797 25.872C174.773 24.384 174.749 23.028 174.725 21.804C174.701 20.556 174.665 19.5 174.617 18.636C174.593 17.748 174.557 17.148 174.509 16.836C175.853 16.644 177.329 16.464 178.937 16.296C180.545 16.128 182.225 16.14 183.977 16.332C185.393 16.404 186.665 16.812 187.793 17.556C188.921 18.3 189.797 19.224 190.421 20.328C191.045 21.432 191.369 22.656 191.393 24C191.441 25.32 191.093 26.604 190.349 27.852C189.893 28.716 189.281 29.436 188.513 30.012C187.769 30.588 186.821 30.912 185.669 30.984H185.525H185.489V31.02C185.993 31.908 186.545 32.796 187.145 33.684C187.745 34.548 188.333 35.424 188.909 36.312C189.485 37.2 190.037 38.112 190.565 39.048ZM182.249 21.336C181.433 21.36 180.605 21.54 179.765 21.876C179.789 22.188 179.801 22.548 179.801 22.956C179.825 23.34 179.837 23.736 179.837 24.144C179.837 24.552 179.837 24.948 179.837 25.332C179.861 25.716 179.897 26.04 179.945 26.304H179.981C180.533 26.352 181.133 26.388 181.781 26.412C182.429 26.436 183.041 26.4 183.617 26.304C184.073 26.208 184.421 25.98 184.661 25.62C184.925 25.236 185.081 24.828 185.129 24.396C185.177 23.94 185.129 23.496 184.985 23.064C184.841 22.608 184.601 22.248 184.265 21.984C183.737 21.504 183.065 21.288 182.249 21.336ZM204.95 27.708C205.118 28.404 205.25 28.956 205.346 29.364L208.046 41.964V42C207.326 42.144 206.534 42.192 205.67 42.144C204.806 42.12 203.99 42.024 203.222 41.856H203.186C203.042 41.472 202.898 41.016 202.754 40.488C202.634 39.96 202.502 39.42 202.358 38.868C202.238 38.316 202.106 37.788 201.962 37.284C201.818 36.78 201.662 36.348 201.494 35.988C201.182 35.94 200.942 35.916 200.774 35.916C200.606 35.916 200.45 35.916 200.306 35.916C200.186 35.916 200.042 35.928 199.874 35.952C199.73 35.952 199.526 35.952 199.262 35.952C199.094 36.336 198.95 36.792 198.83 37.32C198.734 37.824 198.626 38.364 198.506 38.94C198.41 39.492 198.302 40.032 198.182 40.56C198.062 41.088 197.894 41.556 197.678 41.964C197.654 41.964 197.63 41.976 197.606 42C197.606 42 197.594 42 197.57 42C197.378 42.048 196.898 42.048 196.13 42C195.362 41.952 194.162 41.94 192.53 41.964C192.506 41.964 192.482 41.952 192.458 41.928C192.506 41.76 192.59 41.292 192.71 40.524C192.83 39.756 192.998 38.76 193.214 37.536C193.43 36.312 193.682 34.908 193.97 33.324C194.282 31.716 194.642 30.012 195.05 28.212C195.458 26.412 195.902 24.54 196.382 22.596C196.862 20.652 197.39 18.72 197.966 16.8C198.134 16.776 198.314 16.764 198.506 16.764C198.698 16.764 198.95 16.764 199.262 16.764C199.574 16.764 199.97 16.764 200.45 16.764C200.954 16.74 201.602 16.692 202.394 16.62C202.466 16.932 202.574 17.412 202.718 18.06C202.886 18.684 203.054 19.404 203.222 20.22C203.414 21.012 203.606 21.864 203.798 22.776C204.014 23.688 204.218 24.564 204.41 25.404C204.602 26.244 204.782 27.012 204.95 27.708ZM200.306 31.74C200.762 31.716 201.218 31.704 201.674 31.704C201.434 29.64 201.218 28.032 201.026 26.88C200.858 25.728 200.702 24.948 200.558 24.54C200.438 24.132 200.306 24.048 200.162 24.288C200.042 24.504 199.922 24.96 199.802 25.656C199.706 26.352 199.586 27.228 199.442 28.284C199.322 29.34 199.178 30.48 199.01 31.704C199.418 31.728 199.85 31.74 200.306 31.74ZM220.703 17.916C221.423 18.468 221.999 19.092 222.431 19.788C222.959 20.604 223.391 21.456 223.727 22.344C224.087 23.208 224.375 24.12 224.591 25.08C224.711 25.464 224.783 25.848 224.807 26.232C224.855 26.592 224.891 26.964 224.915 27.348C224.867 28.476 224.819 29.616 224.771 30.768C224.747 31.896 224.627 33.012 224.411 34.116C224.411 34.14 224.399 34.152 224.375 34.152C224.375 34.152 224.375 34.164 224.375 34.188C223.895 35.604 223.235 36.948 222.395 38.22C221.579 39.492 220.715 40.692 219.803 41.82C218.219 41.868 216.623 41.904 215.015 41.928C213.407 41.928 211.847 41.928 210.335 41.928C210.335 41.928 210.323 41.94 210.299 41.964C210.035 40.068 209.867 38.112 209.795 36.096C209.723 34.056 209.687 31.992 209.687 29.904C209.687 27.816 209.699 25.716 209.723 23.604C209.771 21.468 209.771 19.356 209.723 17.268C209.747 17.244 209.759 17.22 209.759 17.196C209.783 17.172 209.807 17.148 209.831 17.124C210.503 16.956 211.199 16.848 211.919 16.8C212.663 16.728 213.407 16.704 214.151 16.728C214.895 16.728 215.627 16.74 216.347 16.764C217.091 16.788 217.811 16.788 218.507 16.764C219.275 16.956 220.007 17.34 220.703 17.916ZM218.615 33.504C218.807 33.288 218.975 33.072 219.119 32.856C219.527 32.232 219.815 31.548 219.983 30.804C220.175 30.06 220.175 29.244 219.983 28.356C219.911 27.996 219.827 27.624 219.731 27.24C219.635 26.832 219.491 26.448 219.299 26.088C219.131 25.728 218.915 25.416 218.651 25.152C218.387 24.864 218.051 24.648 217.643 24.504C217.235 24.456 216.791 24.432 216.311 24.432C215.831 24.408 215.375 24.444 214.943 24.54H214.871H214.835V24.684C214.883 25.332 214.907 26.028 214.907 26.772C214.907 27.516 214.895 28.296 214.871 29.112C214.847 29.904 214.835 30.72 214.835 31.56C214.835 32.376 214.859 33.192 214.907 34.008C215.171 34.248 215.531 34.356 215.987 34.332C216.467 34.308 216.923 34.272 217.355 34.224C217.475 34.248 217.583 34.236 217.679 34.188C217.775 34.116 217.883 34.056 218.003 34.008C218.243 33.864 218.447 33.696 218.615 33.504ZM238.119 27.708C238.287 28.404 238.419 28.956 238.515 29.364L241.215 41.964V42C240.495 42.144 239.703 42.192 238.839 42.144C237.975 42.12 237.159 42.024 236.391 41.856H236.355C236.211 41.472 236.067 41.016 235.923 40.488C235.803 39.96 235.671 39.42 235.527 38.868C235.407 38.316 235.275 37.788 235.131 37.284C234.987 36.78 234.831 36.348 234.663 35.988C234.351 35.94 234.111 35.916 233.943 35.916C233.775 35.916 233.619 35.916 233.475 35.916C233.355 35.916 233.211 35.928 233.043 35.952C232.899 35.952 232.695 35.952 232.431 35.952C232.263 36.336 232.119 36.792 231.999 37.32C231.903 37.824 231.795 38.364 231.675 38.94C231.579 39.492 231.471 40.032 231.351 40.56C231.231 41.088 231.063 41.556 230.847 41.964C230.823 41.964 230.799 41.976 230.775 42C230.775 42 230.763 42 230.739 42C230.547 42.048 230.067 42.048 229.299 42C228.531 41.952 227.331 41.94 225.699 41.964C225.675 41.964 225.651 41.952 225.627 41.928C225.675 41.76 225.759 41.292 225.879 40.524C225.999 39.756 226.167 38.76 226.383 37.536C226.599 36.312 226.851 34.908 227.139 33.324C227.451 31.716 227.811 30.012 228.219 28.212C228.627 26.412 229.071 24.54 229.551 22.596C230.031 20.652 230.559 18.72 231.135 16.8C231.303 16.776 231.483 16.764 231.675 16.764C231.867 16.764 232.119 16.764 232.431 16.764C232.743 16.764 233.139 16.764 233.619 16.764C234.123 16.74 234.771 16.692 235.563 16.62C235.635 16.932 235.743 17.412 235.887 18.06C236.055 18.684 236.223 19.404 236.391 20.22C236.583 21.012 236.775 21.864 236.967 22.776C237.183 23.688 237.387 24.564 237.579 25.404C237.771 26.244 237.951 27.012 238.119 27.708ZM233.475 31.74C233.931 31.716 234.387 31.704 234.843 31.704C234.603 29.64 234.387 28.032 234.195 26.88C234.027 25.728 233.871 24.948 233.727 24.54C233.607 24.132 233.475 24.048 233.331 24.288C233.211 24.504 233.091 24.96 232.971 25.656C232.875 26.352 232.755 27.228 232.611 28.284C232.491 29.34 232.347 30.48 232.179 31.704C232.587 31.728 233.019 31.74 233.475 31.74Z" fill="#101010"/>
</svg>
