<svg width="209" height="162" viewBox="0 0 209 162" fill="none" xmlns="http://www.w3.org/2000/svg">
<rect width="209" height="162" rx="24" fill="#19486A"/>
<path d="M27.1097 13.3315C26.0282 13.9116 22.9597 14.7595 21.8887 15.295V10.1632C23.3166 9.58309 27.2882 7.66425 28.6269 6.19165H34.0265V42.3372H27.1097V13.3315Z" fill="white"/>
<path d="M43.7098 11.4573H33.903V6.19162H50.4402V10.6987L42.8278 42.3372H36.1237L43.7098 11.4573ZM62.1816 6.16537H66.2424C68.7177 6.16537 69.7755 7.5986 69.7755 10.0897C69.7755 12.8012 68.3082 13.8434 66.0717 13.8434H64.691V19.9857H62.1816V6.16537ZM65.6649 12.0689C67.0482 12.0689 67.4052 11.5439 67.4052 10.0713C67.4052 8.5987 67.2188 7.93984 65.6649 7.93984H64.6936V12.0689H65.6649ZM72.1459 6.16537H74.8522L77.6163 19.9857H75.2801L74.7341 16.7938H72.327L71.7653 19.9857H69.4028L72.1459 6.16537ZM74.4506 15.1873L73.5109 9.38619L72.5737 15.1873H74.4506ZM78.6138 6.16537H81.9396C84.7036 6.16537 86.2734 7.0526 86.2734 9.8403C86.2734 11.4966 85.8639 12.6569 84.5672 13.1845L86.4965 19.9936H83.9713L82.3149 13.6622H81.1206V19.9936H78.6138V6.16537ZM81.9238 12.0846C83.3728 12.0846 83.903 11.4546 83.903 9.96893C83.903 8.56983 83.5093 7.88734 82.0656 7.88734H81.1258V12.0873L81.9238 12.0846ZM87.5176 15.5653V10.6357C87.5176 7.80334 88.4232 6.0105 91.455 6.0105C94.2873 6.0105 95.193 7.58547 95.193 9.9873V11.1475H92.7701V9.95318C92.7701 8.79295 92.7518 7.85322 91.4734 7.85322C90.195 7.85322 90.0559 8.84282 90.0559 10.1054V16.0956C90.0559 17.597 90.363 18.3136 91.4734 18.3136C92.7176 18.3136 92.7701 17.3398 92.7701 16.1113V14.8671H95.193V15.9748C95.193 18.416 94.3713 20.1747 91.455 20.1747C88.4232 20.1747 87.5176 18.2611 87.5176 15.5653ZM96.5789 6.16537H102.38V7.93984H99.0858V11.914H101.679V13.6727H99.0858V18.2611H102.414V19.9857H96.5789V6.16537ZM103.506 6.16537H106.832C109.596 6.16537 111.166 7.0526 111.166 9.8403C111.166 11.4966 110.756 12.6569 109.46 13.1845L111.389 19.9936H108.864L107.207 13.6622H106.013V19.9936H103.506V6.16537ZM106.816 12.0846C108.265 12.0846 108.795 11.4546 108.795 9.96893C108.795 8.56983 108.402 7.88734 106.958 7.88734H106.018V12.0873L106.816 12.0846ZM112.77 6.16537H115.261V19.9857H112.77V6.16537ZM119.083 6.16537H121.778L124.543 19.9857H122.206L121.66 16.7938H119.253L118.689 19.9857H116.326L119.083 6.16537ZM121.387 15.1873L120.448 9.38619L119.511 15.1873H121.387ZM125.141 15.9591L127.307 15.5312C127.375 17.1692 127.769 18.227 128.882 18.227C129.685 18.227 130.026 17.681 130.026 16.9303C130.026 15.7359 129.412 15.0718 128.506 14.287L126.766 12.7671C125.776 11.914 125.162 10.9585 125.162 9.42294C125.162 7.23898 126.527 6.0105 128.729 6.0105C131.323 6.0105 132.055 7.75084 132.192 9.76418L130.026 10.1395C129.974 8.84282 129.787 7.87159 128.677 7.87159C127.926 7.87159 127.517 8.43333 127.517 9.16832C127.517 10.1054 127.91 10.6173 128.643 11.2499L130.367 12.7671C131.493 13.741 132.431 14.9511 132.431 16.7781C132.431 18.773 131.031 20.1721 128.968 20.1721C126.438 20.1747 125.251 18.7048 125.141 15.9591ZM137.305 6.16537H143.101V7.93984H139.815V11.914H142.408V13.6727H139.815V18.2611H143.14V19.9857H137.305V6.16537ZM148.209 6.16537H150.818L152.782 15.7359L154.811 6.16537H157.354L157.617 19.9857H155.74L155.535 10.3784L153.575 19.9857H152.055L150.06 10.3443L149.871 19.9857H147.978L148.209 6.16537ZM159.281 6.16537H165.082V7.93984H161.791V11.914H164.384V13.6727H161.791V18.2611H165.116V19.9857H159.281V6.16537ZM166.277 6.16537H168.768V19.9857H166.277V6.16537ZM170.303 15.6519V10.4624C170.303 7.66422 171.327 6 174.296 6C177.265 6 178.275 7.66684 178.275 10.4624V15.6519C178.275 18.4318 177.252 20.1721 174.298 20.1721C171.345 20.1721 170.303 18.4501 170.303 15.6519ZM175.713 16.2373V9.88493C175.713 8.7247 175.524 7.85322 174.296 7.85322C173.067 7.85322 172.863 8.7247 172.863 9.88493V16.2373C172.863 17.3818 173.049 18.3031 174.296 18.3031C175.543 18.3031 175.713 17.3923 175.713 16.2373ZM179.415 15.9591L181.58 15.5312C181.648 17.1692 182.042 18.227 183.155 18.227C183.958 18.227 184.3 17.681 184.3 16.9303C184.3 15.7359 183.685 15.0718 182.78 14.287L181.039 12.7671C180.05 11.914 179.436 10.9585 179.436 9.42294C179.436 7.23898 180.801 6.0105 183.003 6.0105C185.596 6.0105 186.329 7.75084 186.465 9.76418L184.3 10.1395C184.247 8.84282 184.061 7.87159 182.95 7.87159C182.2 7.87159 181.79 8.43333 181.79 9.16832C181.79 10.1054 182.184 10.6173 182.916 11.2499L184.641 12.7671C185.767 13.741 186.704 14.9511 186.704 16.7781C186.704 18.773 185.305 20.1721 183.242 20.1721C180.711 20.1747 179.517 18.7048 179.415 15.9591ZM62.1816 28.74H65.4417C68.8017 28.74 69.8254 30.0866 69.8254 33.0396V38.0717C69.8254 41.1087 68.7754 42.5603 65.5441 42.5603H62.1816V28.74ZM65.4759 40.8147C67.1978 40.8147 67.2661 39.8934 67.2661 38.1714V32.869C67.2661 31.2127 67.0955 30.5302 65.4417 30.5302H64.691V40.8016L65.4759 40.8147ZM71.3111 28.74H77.1123V30.5144H73.818V34.4886H76.4114V36.2473H73.818V40.8357H77.1464V42.5603H71.3111V28.74ZM82.0761 28.74H84.5645V42.5603H82.0734L82.0761 28.74ZM86.528 28.74H89.1398L91.1033 38.3105L93.1324 28.74H95.6759L95.9384 42.5603H94.0616L93.8569 32.953L91.8934 42.5603H90.3762L88.3812 32.9189L88.1922 42.5603H86.297L86.528 28.74ZM97.6027 28.74H101.663C104.139 28.74 105.194 30.1732 105.194 32.6774C105.194 35.389 103.729 36.4311 101.493 36.4311H100.109V42.5735H97.6027V28.74ZM101.083 34.6435C102.464 34.6435 102.824 34.1185 102.824 32.6459C102.824 31.1733 102.635 30.5144 101.083 30.5144H100.109V34.6435H101.083ZM106.218 28.74H108.727V40.8357H112.087V42.5603H106.218V28.74ZM113.027 28.74H118.828V30.5144H115.539V34.4886H118.132V36.2473H115.539V40.8357H118.867V42.5603H113.027V28.74ZM120.159 28.74H122.768L124.726 38.3105L126.755 28.74H129.299L129.561 42.5603H127.685L127.48 32.953L125.514 42.5603H123.994L121.999 32.9189L121.81 42.5603H119.917L120.159 28.74ZM131.231 28.74H137.032V30.5144H133.74V34.4886H136.334V36.2473H133.74V40.8357H137.064V42.5603H131.231V28.74ZM138.158 28.74H139.917L143.277 36.6148V28.74H145.358V42.5603H143.686L140.308 34.3022V42.5603H138.158V28.74ZM148.464 30.5984H146.264V28.74H153.139V30.5984H150.989V42.5603H148.464V30.5984ZM155.751 28.74H158.446L161.213 42.5603H158.874L158.326 39.3684H155.921L155.357 42.5603H152.994L155.751 28.74ZM158.063 37.7619L157.126 31.9608L156.176 37.7619H158.063ZM167.164 33.7221V32.5278C167.164 31.3675 167.148 30.4278 165.867 30.4278C164.586 30.4278 164.452 31.4174 164.452 32.68V38.6702C164.452 40.1716 164.759 40.8882 165.867 40.8882C167.114 40.8882 167.164 39.9144 167.164 38.6859V37.4417H169.587V38.5494C169.587 40.8882 168.836 42.6102 166.193 42.7493V43.6024C167.455 43.6024 168.308 44.1668 168.308 45.2247C168.308 46.4348 167.232 46.9466 165.988 46.9466C165.572 46.9425 165.158 46.8798 164.759 46.7602V45.684C165.058 45.7769 165.368 45.8229 165.681 45.8205C166.277 45.8205 166.731 45.6499 166.731 45.1905C166.731 44.5763 166.033 44.3532 165.229 44.2692V42.7152C162.704 42.4527 161.919 40.6336 161.919 38.1425V33.2102C161.919 30.3779 162.825 28.5851 165.857 28.5851C168.689 28.5851 169.592 30.1601 169.592 32.5619V33.7221H167.164ZM173.025 28.74H175.729L178.493 42.5603H176.157L175.611 39.3684H173.204L172.642 42.5603H170.28L173.025 28.74ZM173.55 26.1281C173.107 26.1281 172.952 26.3906 172.952 26.829H171.758C171.758 25.6005 172.099 24.6792 173.209 24.6792C174.044 24.6792 174.608 25.4666 175.341 25.4666C175.734 25.4666 175.887 25.2278 175.887 24.7842H177.013C177.013 25.8578 176.826 26.934 175.716 26.934C174.842 26.9314 174.262 26.1281 173.564 26.1281H173.55ZM175.338 37.7619L174.398 31.9608L173.461 37.7619H175.338ZM179.142 38.2265V33.037C179.142 30.2388 180.165 28.5746 183.134 28.5746C186.103 28.5746 187.111 30.2309 187.111 33.037V38.2239C187.111 41.0037 186.087 42.7441 183.134 42.7441C180.181 42.7441 179.142 41.0247 179.142 38.2265ZM184.552 38.8119V32.4595C184.552 31.2993 184.363 30.4278 183.134 30.4278C181.906 30.4278 181.701 31.2993 181.701 32.4595V38.8119C181.701 39.9564 181.89 40.8777 183.134 40.8777C184.378 40.8777 184.552 39.9669 184.552 38.8119ZM156.85 104.764C156.843 98.3466 154.351 92.1815 149.898 87.561C145.445 82.9404 139.376 80.2232 132.963 79.979C131.255 75.1416 128.088 70.953 123.899 67.9904C119.711 65.0278 114.707 63.4369 109.576 63.4369C104.446 63.4369 99.4419 65.0278 95.2534 67.9904C91.0649 70.953 87.8981 75.1416 86.1894 79.979C81.104 80.163 76.1985 81.9079 72.1393 84.9765C68.08 88.0452 65.0636 92.289 63.4999 97.1315C61.9362 101.974 61.901 107.18 63.3989 112.044C64.8969 116.907 67.8555 121.191 71.8729 124.314C70.4511 129.221 70.5803 134.448 72.2428 139.279C73.9053 144.109 77.0198 148.309 81.1603 151.301C85.3007 154.294 90.2648 155.935 95.3732 155.998C100.482 156.062 105.485 154.545 109.698 151.656C113.915 154.474 118.894 155.93 123.964 155.829C129.035 155.729 133.952 154.075 138.053 151.092C142.154 148.108 145.241 143.939 146.898 139.146C148.555 134.353 148.702 129.167 147.319 124.288C150.287 121.972 152.688 119.01 154.339 115.627C155.991 112.243 156.85 108.528 156.85 104.764ZM129.383 88.2266C129.375 92.9693 127.667 97.5521 124.569 101.143C121.471 104.733 117.187 107.094 112.497 107.796C112.075 105.216 112.172 102.577 112.783 100.035C113.394 97.4933 114.507 95.099 116.056 92.9929C117.605 90.8868 119.559 89.1112 121.803 87.7703C124.048 86.4294 126.537 85.5502 129.126 85.1843C129.292 86.1901 129.38 87.2072 129.388 88.2266M109.672 145.214C107.783 143.387 106.278 141.202 105.244 138.786C104.21 136.37 103.669 133.772 103.651 131.144C103.634 128.516 104.142 125.911 105.144 123.482C106.146 121.052 107.623 118.847 109.488 116.996C111.378 118.823 112.883 121.008 113.917 123.425C114.951 125.841 115.492 128.439 115.509 131.067C115.526 133.695 115.019 136.299 114.017 138.729C113.014 141.158 111.537 143.363 109.672 145.214ZM90.0244 85.1922C92.6142 85.556 95.1052 86.434 97.3508 87.7744C99.5964 89.1149 101.551 90.8908 103.101 92.9977C104.65 95.1046 105.762 97.5 106.372 100.043C106.983 102.586 107.078 105.226 106.653 107.806C104.064 107.442 101.573 106.564 99.3272 105.224C97.0816 103.883 95.1266 102.108 93.5773 100.001C92.028 97.8937 90.9156 95.4983 90.3054 92.9552C89.6953 90.4121 89.5997 87.7727 90.0244 85.1922ZM104.795 113.623C103.627 115.972 102.003 118.065 100.017 119.779C98.0306 121.493 95.7227 122.793 93.228 123.605C90.7333 124.416 88.1018 124.722 85.4875 124.505C82.8732 124.287 80.3284 123.55 78.0021 122.338C79.17 119.989 80.7944 117.896 82.7805 116.182C84.7666 114.468 87.0745 113.168 89.5692 112.356C92.0639 111.545 94.6954 111.239 97.3097 111.456C99.924 111.674 102.469 112.41 104.795 113.623ZM114.292 113.489C116.631 112.262 119.192 111.516 121.824 111.295C124.457 111.075 127.106 111.385 129.616 112.208C132.127 113.03 134.446 114.347 136.438 116.082C138.43 117.816 140.054 119.933 141.214 122.306C138.875 123.535 136.314 124.282 133.681 124.503C131.049 124.723 128.399 124.413 125.888 123.591C123.378 122.769 121.058 121.451 119.066 119.716C117.074 117.981 115.451 115.863 114.292 113.489ZM109.567 68.4292C113.425 68.4332 117.197 69.5623 120.423 71.6781C123.648 73.7939 126.186 76.8046 127.727 80.3413C123.805 81.0419 120.109 82.6735 116.949 85.0989C113.789 87.5244 111.258 90.6728 109.567 94.2797C107.879 90.6723 105.348 87.5233 102.189 85.0976C99.0299 82.672 95.3341 81.0408 91.413 80.3413C92.9528 76.8054 95.4903 73.7952 98.7147 71.6795C101.939 69.5638 105.711 68.4342 109.567 68.4292ZM67.295 104.764C67.3024 99.8809 69.1108 95.1723 72.3738 91.5397C75.6368 87.9072 80.1251 85.6059 84.9793 85.0767C84.8438 86.1274 84.7746 87.1856 84.7719 88.245C84.7706 91.6955 85.4908 95.1082 86.8863 98.264C88.2818 101.42 90.3217 104.249 92.8751 106.57C88.9025 107.03 85.0994 108.441 81.7886 110.684C78.4779 112.928 75.7571 115.937 73.8573 119.456C71.7942 117.606 70.1437 115.342 69.013 112.812C67.8824 110.282 67.297 107.543 67.295 104.772M75.8864 131.21C75.886 129.83 76.0311 128.454 76.3195 127.105C79.8862 128.83 83.8148 129.675 87.7755 129.567C91.7361 129.459 95.613 128.402 99.0805 126.485C98.3431 130.383 98.5561 134.401 99.7017 138.198C100.847 141.996 102.892 145.462 105.661 148.301C102.655 150.065 99.236 151.002 95.7507 151.019C92.2654 151.035 88.8377 150.13 85.8149 148.395C82.7922 146.66 80.2818 144.156 78.5382 141.139C76.7947 138.121 75.8798 134.696 75.8864 131.21ZM143.266 131.047C143.268 134.51 142.36 137.912 140.634 140.914C138.908 143.915 136.425 146.411 133.432 148.152C130.439 149.893 127.041 150.818 123.579 150.834C120.116 150.85 116.71 149.957 113.701 148.243C118.068 143.647 120.501 137.55 120.5 131.21C120.498 129.617 120.343 128.028 120.038 126.464C123.515 128.395 127.405 129.46 131.381 129.569C135.356 129.677 139.299 128.825 142.875 127.086C143.142 128.39 143.277 129.717 143.277 131.047M126.438 106.425C128.946 104.108 130.947 101.297 132.315 98.1685C133.684 95.0401 134.39 91.6622 134.389 88.2476C134.386 87.1882 134.317 86.13 134.181 85.0793C137.974 85.4862 141.568 86.9812 144.53 89.3842C147.492 91.7871 149.697 94.9954 150.877 98.6225C152.057 102.25 152.164 106.141 151.183 109.827C150.203 113.513 148.177 116.837 145.351 119.398C143.472 115.872 140.771 112.852 137.477 110.592C134.183 108.332 130.393 106.899 126.427 106.415" fill="white"/>
</svg>
