<svg width="209" height="162" viewBox="0 0 209 162" fill="none" xmlns="http://www.w3.org/2000/svg">
<rect width="209" height="162" rx="24" fill="#BF8B2E"/>
<path d="M30.2467 14.3558C29.0567 14.9941 25.6803 15.927 24.5019 16.5162V10.8696C26.0731 10.2313 30.4431 8.12 31.9161 6.49967H37.8573V46.2713H30.2467V14.3558ZM38.692 40.9193L48.3648 26.0418C50.4762 22.752 52.5875 20.0024 52.5875 16.3198C52.5875 13.7666 51.6055 12.3918 49.6992 12.3918C46.811 12.3918 46.1149 15.0432 46.1149 18.2838V20.1006H38.692V18.1308C38.692 11.1094 41.7362 6 49.5433 6C56.5156 6 60.0999 9.87896 60.0999 16.4585C60.0999 21.3194 57.5958 24.7074 54.901 28.7827L47.2413 40.2723H59.0255V46.2626H38.692V40.9193ZM81.8804 16.8137V11.3895C81.8804 8.27308 82.874 6.30038 86.2128 6.30038C89.3293 6.30038 90.3258 8.03335 90.3258 10.6761V11.9527H87.6599V10.6386C87.6599 9.36196 87.6397 8.32795 86.2331 8.32795C84.8265 8.32795 84.6734 9.41683 84.6734 10.8061V17.3971C84.6734 19.0492 85.0113 19.8377 86.2331 19.8377C87.6021 19.8377 87.6599 18.7662 87.6599 17.4145V16.0454H90.3258V17.2643C90.3258 19.9504 89.4246 21.8855 86.2128 21.8855C82.874 21.8855 81.8804 19.78 81.8804 16.8137ZM91.4435 16.909V11.1989C91.4435 8.12 92.5699 6.28883 95.8366 6.28883C99.1032 6.28883 100.209 8.11133 100.209 11.1989V16.909C100.209 19.9677 99.083 21.8826 95.8366 21.8826C92.5902 21.8826 91.4435 19.9879 91.4435 16.909ZM97.3934 17.5647V10.5635C97.3934 9.28686 97.1883 8.32795 95.8366 8.32795C94.4849 8.32795 94.2596 9.28686 94.2596 10.5635V17.5531C94.2596 18.8124 94.4647 19.8262 95.8366 19.8262C97.2085 19.8262 97.4049 18.824 97.4049 17.5531L97.3934 17.5647ZM101.703 6.47079H103.638L107.338 15.1356V6.47079H109.64V21.6776H107.8L104.071 12.5911V21.6776H101.703V6.47079ZM110.997 17.247L113.394 16.7762C113.472 18.5785 113.903 19.7424 115.127 19.7424C116.011 19.7424 116.387 19.1417 116.387 18.3156C116.387 17.0015 115.711 16.2707 114.717 15.4071L112.799 13.7348C111.711 12.7961 111.035 11.7448 111.035 10.0551C111.035 7.6521 112.537 6.30038 114.96 6.30038C117.813 6.30038 118.622 8.21531 118.772 10.4306L116.387 10.8436C116.332 9.41683 116.124 8.34817 114.902 8.34817C114.079 8.34817 113.625 8.96626 113.625 9.77498C113.625 10.8061 114.059 11.3693 114.865 12.0654L116.762 13.7348C118.001 14.8064 119.035 16.1379 119.035 18.1481C119.035 20.3432 117.496 21.8826 115.223 21.8826C112.424 21.8855 111.11 20.2681 110.997 17.247ZM119.971 16.7588V6.47079H122.674V17.0765C122.674 18.5207 122.842 19.8175 124.251 19.8175C125.661 19.8175 125.846 18.5236 125.846 17.0765V6.47079H128.532V16.7588C128.532 19.9359 127.648 21.8826 124.251 21.8826C120.855 21.8826 119.971 19.9504 119.971 16.7588ZM130.372 6.47079H133.243L135.403 17.0015L137.636 6.47079H140.434L140.723 21.6776H138.655L138.43 11.1065L136.272 21.6776H134.594L132.399 11.0689L132.191 21.6776H130.109L130.372 6.47079ZM142.162 16.909V11.1989C142.162 8.12 143.288 6.28883 146.555 6.28883C149.821 6.28883 150.942 8.12288 150.942 11.1989V16.909C150.942 19.9677 149.816 21.8826 146.569 21.8826C143.323 21.8826 142.162 19.9879 142.162 16.909ZM148.112 17.5531V10.5635C148.112 9.28686 147.906 8.32795 146.555 8.32795C145.203 8.32795 144.978 9.28686 144.978 10.5635V17.5531C144.978 18.8124 145.183 19.8262 146.555 19.8262C147.927 19.8262 148.112 18.824 148.112 17.5531ZM156.41 6.47079H162.784V8.42327H159.171V12.7961H162.024V14.7313H159.171V19.78H162.83V21.6776H156.41V6.47079ZM82.123 31.31H86.5912C89.3149 31.31 90.4788 32.887 90.4788 35.6424C90.4788 38.626 88.8643 39.7726 86.4035 39.7726H84.8842V46.5312H82.123V31.31ZM85.9558 37.8057C87.4779 37.8057 87.8707 37.2281 87.8707 35.6077C87.8707 33.9874 87.6657 33.2625 85.9558 33.2625H84.8871V37.8057H85.9558ZM91.4435 31.31H95.103C98.1443 31.31 99.8715 32.2862 99.8715 35.3536C99.8715 37.1761 99.4209 38.4527 97.9941 39.0332L100.117 46.5254H97.3385L95.516 39.5589H94.2018V46.5254H91.4435V31.31ZM95.0856 37.823C96.68 37.823 97.2634 37.1299 97.2634 35.4951C97.2634 33.9556 96.8302 33.2047 95.2416 33.2047H94.2076V37.8259L95.0856 37.823ZM101.102 41.7482V36.0381C101.102 32.9592 102.231 31.128 105.498 31.128C108.765 31.128 109.871 32.9505 109.871 36.0381V41.7453C109.871 44.804 108.744 46.7189 105.498 46.7189C102.251 46.7189 101.102 44.8271 101.102 41.7482ZM107.055 42.3923V35.4027C107.055 34.1261 106.85 33.1671 105.498 33.1671C104.146 33.1671 103.921 34.1261 103.921 35.4027V42.3923C103.921 43.6516 104.126 44.6654 105.498 44.6654C106.87 44.6654 107.055 43.6632 107.055 42.3923ZM111.352 31.31H114.94C118.637 31.31 119.766 32.7917 119.766 36.041V41.5778C119.766 44.9195 118.611 46.5168 115.052 46.5168H111.352V31.31ZM114.977 44.5961C116.872 44.5961 116.95 43.5823 116.95 41.6876V35.8532C116.95 34.0307 116.759 33.2798 114.928 33.2798H114.102V44.5816L114.977 44.5961ZM121.135 41.598V31.31H123.838V41.9157C123.838 43.3599 124.006 44.6567 125.415 44.6567C126.825 44.6567 127.01 43.3628 127.01 41.9157V31.31H129.696V41.598C129.696 44.7896 128.812 46.7218 125.415 46.7218C122.019 46.7218 121.135 44.7896 121.135 41.598ZM136.847 36.7919V35.4778C136.847 34.2011 136.83 33.1671 135.42 33.1671C134.011 33.1671 133.864 34.256 133.864 35.6453V42.2363C133.864 43.8884 134.202 44.6769 135.42 44.6769C136.792 44.6769 136.847 43.6054 136.847 42.2537V40.8846H139.513V42.1035C139.513 44.6769 138.687 46.5716 135.779 46.7247V47.6634C137.168 47.6634 138.107 48.2844 138.107 49.4484C138.107 50.7799 136.922 51.3431 135.553 51.3431C135.095 51.3386 134.64 51.2696 134.202 51.138V49.9538C134.53 50.056 134.872 50.1066 135.215 50.104C135.871 50.104 136.371 49.9163 136.371 49.4108C136.371 48.735 135.602 48.4895 134.719 48.397V46.6872C131.94 46.3983 131.076 44.3968 131.076 41.6558V36.2287C131.076 33.1123 132.073 31.1396 135.409 31.1396C138.525 31.1396 139.519 32.8725 139.519 35.5153V36.7919H136.847ZM143.144 31.31H146.11L149.151 46.5168H146.581L145.98 43.0046H143.331L142.713 46.5168H140.114L143.144 31.31ZM143.721 28.4361C143.233 28.4361 143.063 28.725 143.063 29.2073H141.749C141.749 27.8556 142.124 26.8418 143.346 26.8418C144.264 26.8418 144.885 27.7083 145.691 27.7083C146.124 27.7083 146.292 27.4455 146.292 26.9573H147.531C147.531 28.1387 147.326 29.3228 146.104 29.3228C145.145 29.32 144.507 28.4361 143.739 28.4361H143.721ZM145.691 41.237L144.657 34.8539L143.626 41.237H145.691ZM149.726 41.7482V36.0381C149.726 32.9592 150.853 31.128 154.119 31.128C157.386 31.128 158.495 32.9505 158.495 36.0381V41.7453C158.495 44.804 157.368 46.7189 154.119 46.7189C150.87 46.7189 149.726 44.8271 149.726 41.7482ZM155.679 42.3923V35.4027C155.679 34.1261 155.471 33.1671 154.119 33.1671C152.767 33.1671 152.542 34.1261 152.542 35.4027V42.3923C152.542 43.6516 152.75 44.6654 154.119 44.6654C155.488 44.6654 155.679 43.6632 155.679 42.3923ZM82.123 56.1492H85.7854C88.8267 56.1492 90.5539 57.1254 90.5539 60.1928C90.5539 62.0153 90.1034 63.2919 88.6766 63.8724L90.7965 71.3646H88.018L86.1984 64.3981H84.8842V71.3646H82.123V56.1492ZM85.7652 62.6622C87.3624 62.6622 87.9429 61.9691 87.9429 60.3343C87.9429 58.7948 87.5126 58.0439 85.9211 58.0439H84.89V62.6651L85.7652 62.6622ZM92.0934 56.1492H98.4765V58.1017H94.8517V62.4745H97.7053V64.4097H94.8517V69.4584H98.514V71.356H92.0934V56.1492ZM99.187 66.9253L101.573 66.4546C101.648 68.2568 102.078 69.4208 103.306 69.4208C104.187 69.4208 104.565 68.8201 104.565 67.994C104.565 66.6798 103.886 65.9491 102.893 65.0855L100.975 63.4132C99.886 62.4745 99.2101 61.4232 99.2101 59.7335C99.2101 57.3305 100.712 55.9788 103.135 55.9788C105.989 55.9788 106.795 57.8937 106.945 60.109L104.562 60.522C104.504 59.0952 104.299 58.0266 103.077 58.0266C102.251 58.0266 101.801 58.6447 101.801 59.4534C101.801 60.4845 102.234 61.0477 103.04 61.7438L104.938 63.4132C106.177 64.4847 107.208 65.8162 107.208 67.8265C107.208 70.0216 105.668 71.561 103.398 71.561C100.617 71.5639 99.2996 69.9465 99.187 66.9253ZM108.274 56.1492H112.742C115.465 56.1492 116.629 57.7262 116.629 60.4816C116.629 63.4652 115.015 64.6118 112.554 64.6118H111.035V71.3704H108.274V56.1492ZM112.103 62.6449C113.625 62.6449 114.018 62.0673 114.018 60.4469C114.018 58.8266 113.813 58.1017 112.103 58.1017H111.035V62.6449H112.103ZM117.36 66.5874V60.8773C117.36 57.7984 118.486 55.9672 121.753 55.9672C125.02 55.9672 126.129 57.7897 126.129 60.8773V66.5845C126.129 69.6432 125.002 71.5581 121.753 71.5581C118.504 71.5581 117.36 69.6663 117.36 66.5874ZM123.313 67.2315V60.2419C123.313 58.9652 123.105 58.0063 121.753 58.0063C120.401 58.0063 120.176 58.9652 120.176 60.2419V67.2315C120.176 68.4908 120.384 69.5046 121.753 69.5046C123.122 69.5046 123.313 68.5023 123.313 67.2315ZM127.611 56.1492H129.546L133.243 64.814V56.1492H135.533V71.356H133.693L129.976 62.2694V71.356H127.611V56.1492ZM136.905 66.9253L139.288 66.4546C139.363 68.2568 139.796 69.4208 141.021 69.4208C141.905 69.4208 142.28 68.8201 142.28 67.994C142.28 66.6798 141.604 65.9491 140.608 65.0855L138.693 63.4132C137.604 62.4745 136.928 61.4232 136.928 59.7335C136.928 57.3305 138.43 55.9788 140.853 55.9788C143.707 55.9788 144.513 57.8937 144.663 60.109L142.277 60.522C142.219 59.0952 142.014 58.0266 140.793 58.0266C139.967 58.0266 139.516 58.6447 139.516 59.4534C139.516 60.4845 139.949 61.0477 140.755 61.7438L142.653 63.4132C143.892 64.4847 144.923 65.8162 144.923 67.8265C144.923 70.0216 143.383 71.561 141.113 71.561C138.332 71.5639 137.018 69.9465 136.905 66.9253ZM148.187 56.1492H151.153L154.194 71.356H151.624L151.023 67.8438H148.374L147.765 71.356H145.165L148.187 56.1492ZM150.723 66.0762L149.689 59.6931L148.657 66.0762H150.723ZM150.047 51.346H152.646L150.411 55.1007H148.92L150.047 51.346ZM153.877 56.1492H156.317L158.324 66.9051L160.222 56.1492H162.718L159.659 71.356H156.935L153.877 56.1492ZM163.714 56.1492H170.097V58.1017H166.472V62.4745H169.326V64.4097H166.472V69.4584H170.135V71.356H163.714V56.1492ZM171.261 56.1492H174.002V71.356H171.261V56.1492ZM175.409 66.9253L177.794 66.4546C177.869 68.2568 178.3 69.4208 179.527 69.4208C180.394 69.4208 180.784 68.8201 180.784 67.994C180.784 66.6798 180.108 65.9491 179.114 65.0855L177.199 63.4132C176.108 62.4745 175.432 61.4232 175.432 59.7335C175.432 57.3305 176.937 55.9788 179.357 55.9788C182.211 55.9788 183.019 57.8937 183.169 60.109L180.784 60.522C180.729 59.0952 180.521 58.0266 179.302 58.0266C178.476 58.0266 178.025 58.6447 178.025 59.4534C178.025 60.4845 178.456 61.0477 179.265 61.7438L181.159 63.4132C182.398 64.4847 183.432 65.8162 183.432 67.8265C183.432 70.0216 181.893 71.561 179.62 71.561C176.835 71.5639 175.521 69.9465 175.409 66.9253ZM173.214 96.5966C163.971 89.2893 151.699 89.1391 147.219 90.2077L146.699 90.3291C141.515 91.5537 133.277 93.5784 123.636 105.545C123.581 105.611 123.527 105.677 123.475 105.747L123.353 105.894C123.252 106.028 123.195 106.191 123.191 106.359C123.192 106.499 123.227 106.638 123.295 106.76L123.521 107.13C124.731 109.152 126.256 111.751 127.547 114.16C127.56 114.183 127.572 114.208 127.582 114.232C127.651 114.368 127.756 114.482 127.886 114.562C128.016 114.642 128.166 114.685 128.318 114.686C128.534 114.688 128.741 114.605 128.896 114.455C128.956 114.377 129.017 114.293 129.072 114.209C137.63 102.367 144.357 100.741 148.909 99.6698L149.455 99.5427C151.817 98.965 160.8 99.0083 167.284 104.129C172.344 108.124 174.915 114.481 174.915 123.021C174.915 137.35 167.945 142.951 162.097 145.134C153.039 148.522 144.351 143.979 144.287 143.959L143.898 143.771C138.921 141.61 131.495 137.128 124.494 123.056C110.368 94.725 98.5689 92.0707 90.7619 90.2886L90.3431 90.1962C86.7876 89.3904 74.4402 88.8185 64.7356 96.5649C59.6638 100.608 53.6244 108.476 53.6244 122.967C53.6244 131.793 55.4382 137.625 60.0999 143.762C61.1224 145.16 71.5693 158.582 91.767 154.709C94.999 154.091 99.3805 152.548 104.187 148.932L108.632 152.941C108.774 153.068 108.961 153.133 109.151 153.124C109.342 153.115 109.521 153.032 109.651 152.892C109.771 152.761 109.836 152.588 109.83 152.41V152.349L113.036 132.622V132.403C113.035 132.303 113.014 132.205 112.973 132.115C112.932 132.025 112.873 131.943 112.799 131.877C112.671 131.759 112.503 131.696 112.329 131.701H112.19L111.982 131.724L93.087 137.012L92.7432 137.07C92.6026 137.098 92.4753 137.172 92.3822 137.281C92.3175 137.351 92.2675 137.433 92.2351 137.523C92.2026 137.613 92.1884 137.708 92.1932 137.803C92.1981 137.898 92.2219 137.992 92.2633 138.078C92.3046 138.163 92.3628 138.24 92.4342 138.303L92.6566 138.508L96.8908 142.333C94.1556 144.103 91.7728 144.915 89.9589 145.267C75.3443 148.054 68.1293 138.485 67.855 138.11L67.7596 137.994C64.363 133.538 63.2164 129.748 63.2164 122.975C63.2164 114.409 65.7407 108.046 70.7259 104.071C77.0455 99.0286 85.7623 98.9997 88.2231 99.56L88.6477 99.6553C95.0452 101.099 103.814 103.087 115.887 127.342C122.16 139.935 130.014 148.17 139.9 152.511C144.594 154.783 149.736 155.975 154.951 156C158.529 156.011 162.08 155.381 165.435 154.14C171.166 152.002 184.498 144.695 184.498 123.03C184.498 108.551 178.366 100.669 173.234 96.6053" fill="white"/>
</svg>
