<svg width="209" height="162" viewBox="0 0 209 162" fill="none" xmlns="http://www.w3.org/2000/svg">
<rect width="209" height="162" rx="24" fill="#FD9D24"/>
<path d="M38.579 13.0492C37.5377 13.6078 34.583 14.4242 33.5517 14.9399V9.9985C34.9267 9.43991 38.7509 7.59227 40.0399 6.17432H45.2391V40.9787H38.579V13.0492Z" fill="white"/>
<path d="M47.7317 13.0493C46.7004 13.6079 43.7356 14.4243 42.7044 14.9399V9.99858C44.0794 9.43999 47.901 7.59236 49.1926 6.1744H54.3917V40.9787H47.7317V13.0493ZM74.6551 15.2003V10.4535C74.6551 7.72632 75.5271 6 78.4464 6C81.1736 6 82.0456 7.51653 82.0456 9.82924V10.9464H79.7127V9.79638C79.7127 8.6792 79.695 7.77434 78.4641 7.77434C77.2332 7.77434 77.0992 8.72723 77.0992 9.94298V15.7108C77.0992 17.1566 77.3949 17.8466 78.4641 17.8466C79.6622 17.8466 79.7127 16.9089 79.7127 15.726V14.5279H82.0456V15.5946C82.0456 17.9452 81.257 19.6387 78.4464 19.6387C75.5271 19.6387 74.6551 17.7961 74.6551 15.2003ZM83.1325 6.14913H85.5311V19.4567H83.1325V6.14913ZM86.9112 6.14913H90.0504C93.2856 6.14913 94.2714 7.44576 94.2714 10.2893V15.1346C94.2714 18.0589 93.2604 19.4567 90.1489 19.4567H86.9112V6.14913ZM90.0832 17.7632C91.7413 17.7632 91.807 16.876 91.807 15.218V10.125C91.807 8.53008 91.6427 7.87291 90.0504 7.87291H89.3275V17.7632H90.0832ZM97.2792 6.14913H99.8749L102.536 19.4567H100.287L99.7587 16.3832H97.4409L96.8975 19.4567H94.6227L97.2792 6.14913ZM99.4958 14.8363L98.5935 9.25043L97.6937 14.8363H99.4958ZM103.194 6.14913H106.33C109.568 6.14913 110.554 7.44576 110.554 10.2893V15.1346C110.554 18.0589 109.543 19.4567 106.429 19.4567H103.194V6.14913ZM106.363 17.7632C108.024 17.7632 108.089 16.876 108.089 15.218V10.125C108.089 8.53008 107.925 7.87291 106.32 7.87291H105.597V17.7632H106.363ZM111.671 6.14913H117.257V7.85775H114.085V11.6845H116.582V13.3779H114.085V17.7961H117.29V19.4567H111.671V6.14913ZM117.699 15.5794L119.787 15.1674C119.853 16.7446 120.229 17.7632 121.303 17.7632C122.074 17.7632 122.403 17.2375 122.403 16.5146C122.403 15.3646 121.812 14.7251 120.942 13.9694L119.266 12.5059C118.313 11.6845 117.722 10.7644 117.722 9.28581C117.722 7.18289 119.036 6 121.154 6C123.652 6 124.359 7.67576 124.491 9.61439L122.403 9.97583C122.355 8.72722 122.173 7.79203 121.106 7.79203C120.383 7.79203 119.989 8.33293 119.989 9.04064C119.989 9.94298 120.366 10.4358 121.073 11.045L122.716 12.5059C123.801 13.4436 124.706 14.6088 124.706 16.368C124.706 18.2889 123.358 19.6361 121.369 19.6361C118.948 19.6387 117.798 18.2232 117.699 15.5794ZM128.782 6.14913H134.368V7.85775H131.204V11.6845H133.701V13.3779H131.204V17.7961H134.409V19.4567H128.782V6.14913ZM74.6551 36.9372V32.1905C74.6551 29.4632 75.5271 27.7369 78.4464 27.7369C81.1736 27.7369 82.0456 29.2535 82.0456 31.5662V32.6833H79.7127V31.5333C79.7127 30.4161 79.695 29.5113 78.4641 29.5113C77.2332 29.5113 77.0992 30.4641 77.0992 31.6799V37.4478C77.0992 38.8935 77.3949 39.5835 78.4641 39.5835C79.6622 39.5835 79.7127 38.6458 79.7127 37.4629V36.2649H82.0456V37.3315C82.0456 39.6821 81.257 41.3756 78.4464 41.3756C75.5271 41.3756 74.6551 39.533 74.6551 36.9372ZM82.8544 37.0206V32.0236C82.8544 29.3293 83.8402 27.7268 86.6988 27.7268C89.5575 27.7268 90.5281 29.3217 90.5281 32.0236V37.0181C90.5281 39.6948 89.5423 41.3705 86.6988 41.3705C83.8554 41.3705 82.8544 39.715 82.8544 37.0206ZM88.0637 37.5843V31.4676C88.0637 30.3504 87.8817 29.5113 86.6988 29.5113C85.516 29.5113 85.3087 30.3504 85.3087 31.4676V37.5843C85.3087 38.6863 85.4907 39.5734 86.6887 39.5734C87.8868 39.5734 88.0637 38.6964 88.0637 37.5843ZM91.8399 27.886H94.3674L96.2555 37.1015L98.1992 27.886H100.646L100.899 41.1936H99.0914L98.8943 31.9428L97.0037 41.1936H95.5427L93.6193 31.9099L93.4398 41.1936H91.6149L91.8399 27.886ZM102.092 36.8892V27.886H104.457V37.1672C104.457 38.431 104.607 39.5658 105.837 39.5658C107.068 39.5658 107.235 38.4335 107.235 37.1672V27.886H109.586V36.8892C109.586 39.6821 108.812 41.3731 105.837 41.3731C102.863 41.3731 102.092 39.6821 102.092 36.8892ZM110.817 27.886H112.508L115.745 35.4687V27.886H117.75V41.1936H116.145L112.892 33.2419V41.1936H110.822L110.817 27.886ZM119.163 27.886H121.561V41.1936H119.163V27.886ZM122.941 27.886H126.078C129.316 27.886 130.302 29.1827 130.302 32.0262V36.8715C130.302 39.7959 129.291 41.1936 126.177 41.1936H122.941V27.886ZM126.111 39.5128C127.771 39.5128 127.837 38.6256 127.837 36.9675V31.8619C127.837 30.267 127.673 29.6098 126.068 29.6098H125.345V39.5001L126.111 39.5128ZM133.307 27.886H135.903L138.564 41.1936H136.315L135.789 38.1201H133.471L132.93 41.1936H130.655L133.307 27.886ZM135.526 36.5732L134.621 30.9873L133.719 36.5732H135.526ZM139.221 27.886H142.36C145.596 27.886 146.581 29.1827 146.581 32.0262V36.8715C146.581 39.7959 145.57 41.1936 142.459 41.1936H139.221V27.886ZM142.393 39.5128C144.051 39.5128 144.117 38.6256 144.117 36.9675V31.8619C144.117 30.267 143.953 29.6098 142.36 29.6098H141.638V39.5001L142.393 39.5128ZM147.699 27.886H153.285V29.5947H150.115V33.4214H152.612V35.1148H150.115V39.533H153.317V41.1936H147.699V27.886ZM153.729 37.3163L155.815 36.9043C155.88 38.4815 156.259 39.5001 157.331 39.5001C158.105 39.5001 158.433 38.9744 158.433 38.2515C158.433 37.1015 157.842 36.462 156.97 35.7063L155.294 34.2428C154.341 33.4214 153.75 32.5013 153.75 31.0227C153.75 28.9198 155.064 27.7369 157.185 27.7369C159.682 27.7369 160.387 29.4127 160.518 31.3513L158.433 31.7128C158.383 30.4641 158.203 29.529 157.134 29.529C156.411 29.529 156.017 30.0699 156.017 30.7776C156.017 31.6799 156.396 32.1728 157.101 32.7819L158.762 34.2428C159.846 35.1806 160.748 36.3458 160.748 38.1049C160.748 40.0259 159.401 41.3731 157.415 41.3731C154.978 41.3756 153.828 39.9601 153.729 37.3163ZM74.5413 59.0533L76.6291 58.6413C76.6948 60.2184 77.0714 61.237 78.1456 61.237C78.9191 61.237 79.2476 60.7113 79.2476 59.9884C79.2476 58.8384 78.6562 58.1989 77.7867 57.4432L76.111 55.9798C75.1555 55.1583 74.5641 54.2383 74.5641 52.7597C74.5641 50.6567 75.8809 49.4738 77.999 49.4738C80.4962 49.4738 81.204 51.1496 81.3354 53.0882L79.2426 53.4497C79.1946 52.2011 79.0126 51.2659 77.946 51.2659C77.2231 51.2659 76.8263 51.8068 76.8263 52.5145C76.8263 53.4168 77.2054 53.9097 77.9131 54.5188L79.5712 55.9798C80.6555 56.9175 81.5603 58.0827 81.5603 59.8418C81.5603 61.7628 80.2132 63.11 78.224 63.11C75.79 63.1125 74.6399 61.6971 74.5413 59.0533ZM82.2125 58.6261V49.623H84.5782V58.9041C84.5782 60.1679 84.7274 61.3028 85.9583 61.3028C87.1892 61.3028 87.356 60.1704 87.356 58.9041V49.623H89.7066V58.6261C89.7066 61.419 88.9332 63.11 85.9583 63.11C82.9834 63.11 82.2125 61.419 82.2125 58.6261ZM90.6165 59.0533L92.7018 58.6413C92.7675 60.2184 93.1466 61.237 94.2183 61.237C94.9917 61.237 95.3203 60.7113 95.3203 59.9884C95.3203 58.8384 94.7289 58.1989 93.8569 57.4432L92.1811 55.9798C91.2282 55.1583 90.6368 54.2383 90.6368 52.7597C90.6368 50.6567 91.9511 49.4738 94.0717 49.4738C96.5689 49.4738 97.2766 51.1496 97.4055 53.0882L95.3203 53.4497C95.2698 52.2011 95.0903 51.2659 94.0211 51.2659C93.2983 51.2659 92.904 51.8068 92.904 52.5145C92.904 53.4168 93.2831 53.9097 93.9883 54.5188L95.6489 55.9798C96.7332 56.9175 97.6355 58.0827 97.6355 59.8418C97.6355 61.7628 96.2884 63.11 94.3017 63.11C91.8576 63.1125 90.7075 61.6971 90.6165 59.0533ZM99.7157 51.4125H97.5951V49.623H104.217V51.4125H102.142V62.9305H99.7157V51.4125ZM104.753 49.623H110.331V51.3316H107.169V55.1583H109.667V56.8518H107.169V61.2699H110.372V62.9305H104.753V49.623ZM111.112 49.623H112.803L116.041 57.2056V49.623H118.045V62.9305H116.435L113.182 54.9788V62.9305H111.112V49.623ZM120.722 51.4125H118.604V49.623H125.224V51.4125H123.154V62.9305H120.722V51.4125ZM127.425 49.623H130.021L132.682 62.9305H130.433L129.907 59.857H127.589L127.049 62.9305H124.774L127.425 49.623ZM129.644 58.3102L128.74 52.7243L127.837 58.3102H129.644ZM129.053 45.4197H131.328L129.371 48.7055H128.075L129.053 45.4197ZM132.222 49.623H134.358L136.128 59.0356L137.786 49.623H139.972L137.293 62.9305H134.912L132.222 49.623ZM140.662 49.623H146.248V51.3316H143.066V55.1583H145.563V56.8518H143.066V61.2699H146.271V62.9305H140.662V49.623ZM147.074 49.623H149.473V62.9305H147.074V49.623ZM150.519 59.0533L152.605 58.6413C152.67 60.2184 153.049 61.237 154.121 61.237C154.895 61.237 155.223 60.7113 155.223 59.9884C155.223 58.8384 154.632 58.1989 153.76 57.4432L152.084 55.9798C151.131 55.1583 150.54 54.2383 150.54 52.7597C150.54 50.6567 151.854 49.4738 153.975 49.4738C156.472 49.4738 157.177 51.1496 157.311 53.0882L155.223 53.4497C155.173 52.2011 154.993 51.2659 153.924 51.2659C153.201 51.2659 152.807 51.8068 152.807 52.5145C152.807 53.4168 153.186 53.9097 153.891 54.5188L155.552 55.9798C156.636 56.9175 157.538 58.0827 157.538 59.8418C157.538 61.7628 156.191 63.11 154.205 63.11C151.783 63.1125 150.623 61.6971 150.519 59.0533ZM68.0708 133.631H92.0168C92.1302 133.631 92.2413 133.599 92.3364 133.537C92.4315 133.475 92.5066 133.387 92.5525 133.283C92.5983 133.179 92.6129 133.065 92.5946 132.953C92.5762 132.841 92.5256 132.737 92.449 132.653L92.4162 132.618L80.5064 117.202L80.3901 117.076C80.335 117.015 80.2679 116.967 80.1931 116.934C80.1182 116.901 80.0372 116.883 79.9554 116.884C79.8134 116.887 79.6772 116.941 79.5712 117.035L79.4979 117.119L79.3867 117.242L67.7599 132.496L67.5805 132.714C67.5208 132.802 67.4865 132.906 67.4811 133.012C67.4756 133.119 67.4994 133.225 67.5498 133.32C67.6002 133.414 67.6753 133.493 67.7671 133.548C67.8589 133.603 67.9639 133.631 68.0708 133.631ZM91.9435 135.807H67.952C67.8747 135.807 67.7981 135.823 67.7267 135.852C67.6552 135.882 67.5903 135.925 67.5356 135.98C67.4809 136.035 67.4375 136.099 67.4079 136.171C67.3784 136.242 67.3631 136.319 67.3631 136.396V155.171C67.3628 155.248 67.3778 155.325 67.4072 155.397C67.4367 155.469 67.48 155.534 67.5347 155.589C67.5894 155.644 67.6545 155.688 67.7261 155.717C67.7977 155.747 67.8745 155.762 67.952 155.762H75.6737V143.949C75.6734 143.871 75.6883 143.795 75.7176 143.723C75.7469 143.652 75.7901 143.587 75.8445 143.532C75.899 143.478 75.9638 143.434 76.0351 143.405C76.1064 143.375 76.1829 143.36 76.2601 143.36H83.4282C83.5844 143.36 83.7342 143.422 83.8446 143.532C83.9551 143.643 84.0171 143.792 84.0171 143.949V155.762H91.9435C92.0999 155.762 92.2497 155.699 92.3601 155.588C92.4705 155.477 92.5324 155.327 92.5324 155.171V136.396C92.5324 136.319 92.5172 136.242 92.4876 136.171C92.458 136.099 92.4146 136.035 92.3599 135.98C92.3052 135.925 92.2403 135.882 92.1689 135.852C92.0974 135.823 92.0208 135.807 91.9435 135.807ZM174.867 130.894H151.108C151.033 130.892 150.958 130.905 150.888 130.933C150.818 130.96 150.754 131.002 150.7 131.054C150.646 131.106 150.603 131.169 150.573 131.238C150.543 131.308 150.528 131.382 150.527 131.457V155.436C150.53 155.588 150.592 155.733 150.701 155.838C150.81 155.944 150.957 156.002 151.108 156H174.867C174.942 156.001 175.017 155.988 175.087 155.96C175.157 155.932 175.221 155.891 175.275 155.839C175.329 155.787 175.372 155.724 175.402 155.655C175.432 155.586 175.448 155.512 175.449 155.436V131.457C175.448 131.382 175.432 131.308 175.403 131.238C175.373 131.169 175.33 131.106 175.276 131.054C175.222 131.002 175.158 130.96 175.088 130.933C175.017 130.905 174.943 130.892 174.867 130.894ZM161.873 146.547C161.873 146.622 161.858 146.697 161.828 146.766C161.799 146.836 161.756 146.899 161.702 146.952C161.648 147.005 161.585 147.046 161.515 147.075C161.445 147.103 161.37 147.117 161.294 147.116H154.199C154.124 147.117 154.049 147.103 153.978 147.075C153.908 147.047 153.844 147.005 153.79 146.952C153.736 146.899 153.692 146.836 153.662 146.767C153.633 146.697 153.617 146.623 153.616 146.547V142.237C153.617 142.162 153.633 142.087 153.662 142.018C153.692 141.948 153.736 141.886 153.79 141.833C153.844 141.78 153.908 141.739 153.979 141.711C154.049 141.684 154.124 141.67 154.199 141.671H161.294C161.37 141.67 161.444 141.684 161.514 141.711C161.584 141.739 161.648 141.781 161.702 141.833C161.756 141.886 161.799 141.949 161.828 142.018C161.858 142.088 161.873 142.162 161.873 142.237V146.547ZM161.873 138.58C161.871 138.732 161.809 138.877 161.701 138.983C161.592 139.089 161.446 139.148 161.294 139.146H154.199C154.047 139.148 153.9 139.09 153.791 138.984C153.681 138.878 153.618 138.732 153.616 138.58V134.266C153.618 134.113 153.681 133.968 153.791 133.862C153.9 133.756 154.047 133.697 154.199 133.699H161.294C161.37 133.698 161.444 133.712 161.514 133.74C161.584 133.768 161.648 133.81 161.701 133.862C161.755 133.915 161.798 133.977 161.827 134.047C161.857 134.116 161.872 134.19 161.873 134.266V138.58ZM172.716 146.547C172.716 146.623 172.701 146.697 172.671 146.767C172.642 146.837 172.599 146.9 172.545 146.953C172.49 147.006 172.426 147.047 172.356 147.075C172.286 147.103 172.211 147.117 172.135 147.116H165.043C164.967 147.117 164.892 147.103 164.822 147.075C164.751 147.047 164.687 147.006 164.633 146.953C164.579 146.9 164.536 146.837 164.507 146.767C164.477 146.697 164.462 146.623 164.461 146.547V142.237C164.462 142.162 164.478 142.087 164.507 142.018C164.537 141.949 164.58 141.886 164.634 141.833C164.688 141.781 164.752 141.739 164.822 141.711C164.892 141.684 164.967 141.67 165.043 141.671H172.135C172.21 141.67 172.285 141.684 172.355 141.711C172.426 141.739 172.49 141.781 172.544 141.833C172.598 141.886 172.641 141.949 172.67 142.018C172.7 142.087 172.716 142.162 172.716 142.237V146.547ZM172.716 138.58C172.715 138.655 172.699 138.73 172.67 138.799C172.64 138.868 172.597 138.931 172.543 138.984C172.489 139.036 172.425 139.078 172.355 139.105C172.285 139.133 172.21 139.147 172.135 139.146H165.043C164.967 139.147 164.893 139.133 164.823 139.105C164.753 139.078 164.689 139.036 164.635 138.984C164.581 138.931 164.538 138.868 164.508 138.799C164.478 138.73 164.462 138.655 164.461 138.58V134.266C164.462 134.19 164.478 134.116 164.507 134.046C164.537 133.977 164.58 133.914 164.634 133.861C164.688 133.809 164.752 133.767 164.822 133.739C164.892 133.712 164.967 133.698 165.043 133.699H172.135C172.21 133.698 172.285 133.712 172.355 133.739C172.426 133.767 172.49 133.809 172.544 133.861C172.598 133.914 172.641 133.977 172.67 134.046C172.7 134.116 172.716 134.19 172.716 134.266V138.58ZM119.666 75.2447H96.4299C96.3553 75.2447 96.2815 75.2595 96.2127 75.2881C96.1438 75.3167 96.0813 75.3586 96.0287 75.4114C95.9761 75.4643 95.9344 75.527 95.9061 75.596C95.8778 75.665 95.8634 75.7389 95.8637 75.8134V155.224C95.8637 155.374 95.9233 155.519 96.0294 155.625C96.1355 155.732 96.2795 155.792 96.4299 155.793H119.671C119.822 155.792 119.966 155.732 120.073 155.626C120.18 155.519 120.241 155.375 120.242 155.224V75.8008C120.241 75.6497 120.181 75.5051 120.074 75.3985C119.967 75.2919 119.822 75.2321 119.671 75.2321M105.845 146.744C105.845 146.825 105.813 146.902 105.756 146.959C105.7 147.017 105.622 147.049 105.542 147.05H100.221C100.141 147.049 100.063 147.017 100.007 146.959C99.9498 146.902 99.9179 146.825 99.9179 146.744V140.814C99.9179 140.734 99.9499 140.657 100.007 140.6C100.064 140.543 100.141 140.511 100.221 140.511H105.529C105.61 140.511 105.687 140.543 105.744 140.6C105.8 140.657 105.832 140.734 105.832 140.814L105.845 146.744ZM105.845 133.126C105.845 133.166 105.838 133.205 105.823 133.242C105.807 133.279 105.785 133.313 105.757 133.341C105.729 133.369 105.695 133.391 105.658 133.407C105.621 133.422 105.582 133.429 105.542 133.429H100.221C100.181 133.429 100.142 133.422 100.105 133.407C100.068 133.391 100.034 133.369 100.006 133.341C99.9778 133.313 99.9554 133.279 99.9403 133.242C99.9252 133.205 99.9176 133.166 99.9179 133.126V127.196C99.9176 127.156 99.9252 127.116 99.9403 127.08C99.9554 127.043 99.9778 127.009 100.006 126.981C100.034 126.953 100.068 126.93 100.105 126.915C100.142 126.9 100.181 126.892 100.221 126.893H105.529C105.569 126.892 105.609 126.9 105.646 126.915C105.682 126.93 105.716 126.953 105.744 126.981C105.773 127.009 105.795 127.043 105.81 127.08C105.825 127.116 105.833 127.156 105.832 127.196L105.845 133.126ZM105.845 119.51C105.845 119.59 105.813 119.667 105.756 119.724C105.699 119.781 105.622 119.813 105.542 119.813H100.221C100.141 119.813 100.064 119.781 100.007 119.724C99.9499 119.667 99.9179 119.59 99.9179 119.51V113.578C99.9179 113.497 99.9498 113.419 100.007 113.362C100.063 113.305 100.141 113.272 100.221 113.272H105.529C105.61 113.272 105.687 113.305 105.744 113.362C105.801 113.419 105.832 113.497 105.832 113.578L105.845 119.51ZM105.845 105.889C105.845 105.969 105.813 106.047 105.756 106.104C105.7 106.161 105.622 106.194 105.542 106.195H100.221C100.141 106.194 100.063 106.161 100.007 106.104C99.9498 106.047 99.9179 105.969 99.9179 105.889V99.9566C99.9179 99.9169 99.9258 99.8775 99.9411 99.8409C99.9563 99.8042 99.9787 99.771 100.007 99.743C100.035 99.715 100.069 99.6929 100.105 99.678C100.142 99.663 100.182 99.6555 100.221 99.6558H105.529C105.569 99.6555 105.608 99.663 105.645 99.678C105.682 99.6929 105.715 99.715 105.743 99.743C105.772 99.771 105.794 99.8042 105.809 99.8409C105.825 99.8775 105.832 99.9169 105.832 99.9566L105.845 105.889ZM105.845 92.2728C105.845 92.3533 105.813 92.4304 105.756 92.4873C105.699 92.5442 105.622 92.5761 105.542 92.5761H100.221C100.141 92.5761 100.064 92.5442 100.007 92.4873C99.9499 92.4304 99.9179 92.3533 99.9179 92.2728V86.3407C99.9179 86.2602 99.9499 86.1831 100.007 86.1262C100.064 86.0693 100.141 86.0374 100.221 86.0374H105.529C105.61 86.0374 105.687 86.0693 105.744 86.1262C105.8 86.1831 105.832 86.2602 105.832 86.3407L105.845 92.2728ZM116.281 146.744C116.281 146.784 116.273 146.824 116.258 146.862C116.242 146.899 116.219 146.933 116.191 146.961C116.162 146.99 116.128 147.012 116.091 147.027C116.053 147.043 116.013 147.05 115.973 147.05H110.665C110.584 147.05 110.506 147.018 110.449 146.96C110.391 146.903 110.359 146.825 110.359 146.744V140.814C110.359 140.774 110.367 140.735 110.383 140.698C110.398 140.661 110.421 140.627 110.449 140.599C110.477 140.571 110.511 140.549 110.548 140.533C110.585 140.518 110.625 140.511 110.665 140.511H115.973C116.013 140.51 116.053 140.518 116.091 140.533C116.128 140.548 116.162 140.57 116.191 140.598C116.219 140.626 116.242 140.66 116.258 140.697C116.273 140.734 116.281 140.774 116.281 140.814V146.744ZM116.281 133.126C116.281 133.166 116.273 133.206 116.258 133.243C116.242 133.28 116.219 133.314 116.191 133.342C116.162 133.37 116.128 133.392 116.091 133.407C116.053 133.422 116.013 133.43 115.973 133.429H110.665C110.625 133.43 110.585 133.422 110.548 133.407C110.511 133.392 110.477 133.37 110.448 133.342C110.42 133.313 110.397 133.28 110.382 133.243C110.367 133.206 110.359 133.166 110.359 133.126V127.196C110.359 127.156 110.367 127.116 110.382 127.079C110.397 127.042 110.42 127.008 110.448 126.98C110.477 126.952 110.511 126.929 110.548 126.914C110.585 126.899 110.625 126.892 110.665 126.893H115.973C116.013 126.892 116.053 126.899 116.091 126.914C116.128 126.929 116.162 126.951 116.191 126.98C116.219 127.008 116.242 127.042 116.258 127.079C116.273 127.116 116.281 127.156 116.281 127.196V133.126ZM116.281 119.51C116.281 119.55 116.273 119.59 116.257 119.627C116.241 119.664 116.219 119.697 116.19 119.725C116.161 119.753 116.127 119.776 116.09 119.791C116.053 119.806 116.013 119.813 115.973 119.813H110.665C110.584 119.813 110.507 119.781 110.45 119.724C110.392 119.668 110.36 119.59 110.359 119.51V113.578C110.359 113.496 110.391 113.419 110.449 113.361C110.506 113.304 110.584 113.272 110.665 113.272H115.973C116.013 113.271 116.053 113.279 116.091 113.294C116.128 113.309 116.162 113.332 116.191 113.36C116.219 113.389 116.242 113.423 116.258 113.46C116.273 113.497 116.281 113.537 116.281 113.578V119.51ZM116.281 105.889C116.281 105.929 116.273 105.969 116.258 106.006C116.242 106.044 116.219 106.077 116.191 106.106C116.162 106.134 116.128 106.157 116.091 106.172C116.053 106.187 116.013 106.195 115.973 106.195H110.665C110.584 106.195 110.506 106.162 110.449 106.105C110.391 106.048 110.359 105.97 110.359 105.889V99.9566C110.36 99.9167 110.368 99.8774 110.383 99.8407C110.399 99.804 110.421 99.7708 110.45 99.7428C110.478 99.7149 110.512 99.6928 110.549 99.6779C110.586 99.663 110.625 99.6555 110.665 99.6558H115.973C116.013 99.6551 116.053 99.6624 116.09 99.6772C116.127 99.692 116.161 99.714 116.19 99.7419C116.218 99.7699 116.241 99.8033 116.257 99.8401C116.273 99.8769 116.281 99.9165 116.281 99.9566V105.889ZM116.281 92.2728C116.281 92.313 116.273 92.3527 116.257 92.3897C116.241 92.4267 116.219 92.4602 116.19 92.4883C116.161 92.5165 116.127 92.5388 116.09 92.5538C116.053 92.5689 116.013 92.5765 115.973 92.5761H110.665C110.584 92.5761 110.507 92.5443 110.45 92.4874C110.392 92.4306 110.36 92.3535 110.359 92.2728V86.3407C110.359 86.3006 110.367 86.261 110.383 86.224C110.398 86.187 110.421 86.1535 110.449 86.1253C110.477 86.0971 110.511 86.0748 110.548 86.0597C110.585 86.0446 110.625 86.037 110.665 86.0374H115.973C116.013 86.0367 116.053 86.044 116.091 86.059C116.128 86.0739 116.162 86.0962 116.191 86.1244C116.219 86.1526 116.242 86.1863 116.258 86.2234C116.273 86.2606 116.281 86.3004 116.281 86.3407V92.2728ZM175.423 128.48C175.424 128.543 175.412 128.605 175.388 128.663C175.364 128.721 175.329 128.774 175.284 128.819C175.24 128.863 175.187 128.898 175.129 128.922C175.071 128.946 175.008 128.958 174.946 128.958H151.043C150.916 128.958 150.794 128.907 150.705 128.818C150.615 128.728 150.565 128.607 150.565 128.48V123.7C150.565 123.574 150.615 123.452 150.705 123.363C150.794 123.273 150.916 123.223 151.043 123.223H174.946C175.072 123.223 175.194 123.273 175.283 123.363C175.373 123.452 175.423 123.574 175.423 123.7V128.48ZM147.739 90.2306C147.715 90.1376 147.669 90.0518 147.604 89.9806C147.54 89.9094 147.459 89.855 147.368 89.8219C147.278 89.7889 147.181 89.7782 147.086 89.7908C146.991 89.8035 146.9 89.839 146.822 89.8944L146.779 89.9247L146.584 90.1775L123.74 119.146L123.634 119.287C123.512 119.407 123.442 119.569 123.437 119.74V155.343C123.437 155.417 123.451 155.491 123.48 155.56C123.509 155.629 123.551 155.691 123.603 155.744C123.656 155.797 123.719 155.838 123.788 155.867C123.857 155.895 123.931 155.909 124.005 155.909H147.234C147.308 155.909 147.382 155.895 147.451 155.867C147.52 155.838 147.583 155.797 147.636 155.744C147.688 155.691 147.73 155.629 147.759 155.56C147.788 155.491 147.802 155.417 147.802 155.343V90.4682C147.799 90.3853 147.777 90.3042 147.739 90.2306ZM138.122 105.965L138.286 105.76C139.848 103.753 142.482 100.513 143.766 98.9354L143.935 98.7332C144.014 98.6373 144.118 98.5658 144.236 98.527C144.354 98.4883 144.48 98.4839 144.6 98.5144C144.72 98.5449 144.829 98.609 144.914 98.6993C144.999 98.7895 145.057 98.9021 145.08 99.0239V106.354C145.079 106.523 145.013 106.686 144.895 106.807C144.777 106.929 144.617 107.001 144.448 107.008H138.622C138.503 107.004 138.387 106.967 138.287 106.902C138.187 106.837 138.106 106.745 138.054 106.638C138.002 106.53 137.981 106.41 137.992 106.291C138.003 106.172 138.046 106.058 138.117 105.962L138.122 105.965ZM134.507 146.542C134.508 146.616 134.493 146.69 134.465 146.759C134.437 146.828 134.395 146.891 134.342 146.944C134.29 146.997 134.227 147.039 134.158 147.067C134.09 147.096 134.016 147.111 133.941 147.111H127.013C126.862 147.111 126.718 147.051 126.611 146.944C126.504 146.837 126.445 146.693 126.445 146.542V142.207C126.445 142.133 126.459 142.059 126.488 141.99C126.516 141.921 126.558 141.858 126.611 141.806C126.664 141.753 126.727 141.712 126.796 141.683C126.865 141.655 126.939 141.641 127.013 141.641H133.939C134.089 141.641 134.233 141.701 134.339 141.807C134.445 141.913 134.505 142.057 134.505 142.207L134.507 146.542ZM134.507 138.532C134.508 138.607 134.493 138.68 134.465 138.749C134.437 138.818 134.395 138.881 134.342 138.934C134.29 138.987 134.227 139.029 134.158 139.057C134.09 139.086 134.016 139.101 133.941 139.101H127.013C126.862 139.101 126.718 139.041 126.611 138.934C126.504 138.828 126.445 138.683 126.445 138.532V134.197C126.445 134.123 126.459 134.049 126.488 133.98C126.516 133.911 126.558 133.849 126.611 133.796C126.664 133.743 126.727 133.702 126.796 133.673C126.865 133.645 126.939 133.631 127.013 133.631H133.939C134.013 133.631 134.087 133.645 134.156 133.674C134.225 133.702 134.288 133.744 134.341 133.797C134.393 133.85 134.435 133.913 134.463 133.982C134.491 134.051 134.506 134.125 134.505 134.2L134.507 138.532ZM134.507 130.522C134.507 130.672 134.448 130.816 134.342 130.923C134.235 131.029 134.091 131.088 133.941 131.088H127.013C126.863 131.088 126.719 131.029 126.612 130.923C126.505 130.817 126.445 130.673 126.445 130.522V126.185C126.445 126.034 126.504 125.889 126.611 125.783C126.718 125.676 126.862 125.616 127.013 125.616H133.939C134.013 125.616 134.087 125.631 134.156 125.66C134.225 125.688 134.287 125.73 134.34 125.783C134.393 125.836 134.434 125.899 134.462 125.968C134.491 126.036 134.505 126.11 134.505 126.185L134.507 130.522ZM134.528 112.966V122.51C134.527 122.661 134.467 122.805 134.36 122.911C134.254 123.018 134.11 123.078 133.959 123.079H127.033C126.958 123.079 126.884 123.064 126.815 123.036C126.745 123.008 126.682 122.966 126.629 122.913C126.575 122.86 126.533 122.797 126.504 122.728C126.475 122.659 126.46 122.585 126.46 122.51V121.307C126.462 121.234 126.477 121.162 126.505 121.094C126.514 121.072 126.525 121.05 126.538 121.029C126.553 121.003 126.57 120.979 126.589 120.955C126.606 120.928 126.632 120.892 126.654 120.862C127.539 119.598 131.535 114.672 133.213 112.615L133.38 112.412C133.441 112.336 133.517 112.273 133.605 112.23C133.692 112.186 133.788 112.162 133.886 112.16C134.037 112.161 134.183 112.215 134.298 112.312C134.414 112.41 134.492 112.544 134.52 112.693L134.528 112.966ZM145.095 146.542C145.096 146.616 145.081 146.69 145.053 146.759C145.025 146.828 144.983 146.891 144.93 146.944C144.878 146.997 144.815 147.039 144.746 147.067C144.677 147.096 144.604 147.111 144.529 147.111H137.604C137.529 147.111 137.455 147.096 137.385 147.068C137.316 147.04 137.253 146.998 137.2 146.945C137.147 146.892 137.105 146.829 137.076 146.76C137.047 146.691 137.032 146.617 137.032 146.542V142.207C137.033 142.132 137.048 142.059 137.077 141.99C137.106 141.921 137.148 141.858 137.201 141.806C137.254 141.753 137.317 141.712 137.386 141.683C137.455 141.655 137.529 141.641 137.604 141.641H144.529C144.679 141.641 144.823 141.701 144.929 141.807C145.036 141.913 145.095 142.057 145.095 142.207V146.542ZM145.095 138.532C145.096 138.607 145.081 138.68 145.053 138.749C145.025 138.818 144.983 138.881 144.93 138.934C144.878 138.987 144.815 139.029 144.746 139.057C144.677 139.086 144.604 139.101 144.529 139.101H137.604C137.529 139.101 137.455 139.087 137.385 139.058C137.316 139.03 137.253 138.988 137.2 138.935C137.147 138.882 137.105 138.819 137.076 138.75C137.047 138.681 137.032 138.607 137.032 138.532V134.197C137.032 134.122 137.047 134.048 137.075 133.979C137.104 133.909 137.146 133.846 137.199 133.793C137.252 133.741 137.315 133.699 137.385 133.67C137.454 133.642 137.529 133.628 137.604 133.629H144.529C144.604 133.629 144.677 133.643 144.746 133.672C144.815 133.701 144.878 133.742 144.93 133.795C144.983 133.848 145.025 133.911 145.053 133.98C145.081 134.049 145.096 134.123 145.095 134.197V138.532ZM145.095 130.522C145.095 130.672 145.035 130.816 144.929 130.922C144.823 131.028 144.679 131.088 144.529 131.088H137.604C137.529 131.089 137.455 131.074 137.386 131.046C137.317 131.018 137.254 130.976 137.201 130.924C137.148 130.871 137.106 130.809 137.077 130.74C137.048 130.671 137.033 130.597 137.032 130.522V126.185C137.032 126.11 137.047 126.036 137.076 125.967C137.105 125.898 137.147 125.835 137.2 125.782C137.253 125.729 137.316 125.687 137.385 125.659C137.455 125.63 137.529 125.616 137.604 125.616H144.529C144.604 125.616 144.677 125.631 144.746 125.66C144.815 125.688 144.878 125.73 144.93 125.783C144.983 125.836 145.025 125.899 145.053 125.968C145.081 126.036 145.096 126.11 145.095 126.185V130.522ZM145.095 122.51C145.095 122.66 145.036 122.804 144.929 122.91C144.823 123.016 144.679 123.076 144.529 123.076H137.604C137.529 123.076 137.455 123.062 137.386 123.034C137.317 123.005 137.254 122.964 137.201 122.911C137.148 122.859 137.106 122.796 137.077 122.727C137.048 122.658 137.033 122.585 137.032 122.51V118.173C137.033 118.098 137.048 118.024 137.077 117.955C137.106 117.886 137.148 117.824 137.201 117.771C137.254 117.719 137.317 117.677 137.386 117.649C137.455 117.62 137.529 117.606 137.604 117.606H144.529C144.679 117.606 144.823 117.666 144.929 117.772C145.036 117.878 145.095 118.022 145.095 118.173V122.51ZM145.095 114.498C145.095 114.648 145.036 114.792 144.929 114.898C144.823 115.004 144.679 115.064 144.529 115.064H137.604C137.529 115.064 137.455 115.05 137.386 115.021C137.317 114.993 137.254 114.952 137.201 114.899C137.148 114.846 137.106 114.784 137.077 114.715C137.048 114.646 137.033 114.572 137.032 114.498V110.16C137.032 110.085 137.047 110.011 137.076 109.942C137.105 109.873 137.147 109.81 137.2 109.757C137.253 109.704 137.316 109.663 137.385 109.634C137.455 109.606 137.529 109.591 137.604 109.592H144.529C144.604 109.592 144.677 109.606 144.746 109.635C144.815 109.664 144.878 109.705 144.93 109.758C144.983 109.811 145.025 109.874 145.053 109.943C145.081 110.012 145.096 110.086 145.095 110.16V114.498Z" fill="white"/>
</svg>
