<svg width="209" height="162" viewBox="0 0 209 162" fill="none" xmlns="http://www.w3.org/2000/svg">
<rect width="209" height="162" rx="24" fill="#3F7E44"/>
<path d="M24.3535 17.466C23.2503 18.0577 20.12 18.9226 19.0275 19.4689V14.234C20.4842 13.6422 24.5356 11.6848 25.9012 10.1826H31.4093V47.0546H24.3535V17.466ZM32.0465 36.5393V35.2647H39.0488V36.4964C39.0943 40.0926 39.7316 41.7769 42.0532 41.7769C44.4202 41.7769 44.921 39.956 44.921 36.4509C44.921 32.7637 44.0561 30.6697 40.8241 30.5787C40.4162 30.5312 40.0053 30.516 39.595 30.5332V25.3866H40.6875C43.965 25.3866 44.921 23.7023 44.921 19.9241C44.921 16.9786 44.2382 15.2809 41.9166 15.2809C39.595 15.2809 39.1023 17.2839 39.0488 20.1624V21.8012H32.0465V19.7875C32.0465 13.3235 35.6882 9.68185 41.9246 9.68185C48.2065 9.68185 51.8482 13.1415 51.8482 19.5599C51.8482 23.8844 49.8453 26.8888 47.2051 27.6171C49.8828 28.6186 51.8482 31.0767 51.8482 36.3117C51.8482 43.0059 49.1705 47.6919 41.9701 47.6919C34.5957 47.6919 32.0465 43.2309 32.0465 36.5393ZM74.823 10.1558H77.573L80.3926 24.2539H78.0068L77.4498 20.9979H74.997L74.4213 24.2539H72.0114L74.823 10.1558ZM77.1713 19.3591L76.2154 13.4414L75.2567 19.3591H77.1713ZM86.3264 15.2381V14.0197C86.3264 12.8362 86.3103 11.8776 85.0036 11.8776C83.6969 11.8776 83.5603 12.8871 83.5603 14.175V20.2856C83.5603 21.8172 83.8736 22.5482 85.0036 22.5482C86.2755 22.5482 86.3264 21.5548 86.3264 20.3016V19.0324H88.7979V20.1624C88.7979 22.5482 88.0321 24.3048 85.3356 24.4467V25.317C86.6236 25.317 87.4939 25.8927 87.4939 26.9718C87.4939 28.2062 86.396 28.7284 85.1268 28.7284C84.7022 28.7242 84.2803 28.6602 83.8736 28.5383V27.4404C84.1778 27.5351 84.4949 27.5821 84.8135 27.5797C85.4213 27.5797 85.8846 27.4056 85.8846 26.937C85.8846 26.3104 85.1723 26.0828 84.3529 25.9971V24.4119C81.777 24.1442 80.9763 22.2885 80.9763 19.7474V14.7159C80.9763 11.8267 81.9001 9.99782 84.9929 9.99782C87.8821 9.99782 88.8033 11.6044 88.8033 14.0546V15.2381H86.3264ZM92.1745 10.1558H94.9245L97.7442 24.2539H95.361L94.804 20.9979H92.3486L91.7755 24.2539H89.3656L92.1745 10.1558ZM92.7101 7.4781C92.2575 7.4781 92.0995 7.74587 92.0995 8.19304H90.8812C90.8812 6.93988 91.2293 6 92.362 6C93.2135 6 93.7892 6.80331 94.5363 6.80331C94.9379 6.80331 95.0932 6.55964 95.0932 6.10711H96.242C96.242 7.20229 96.0518 8.30015 94.9192 8.30015C94.0195 8.31086 93.4277 7.49148 92.7154 7.49148L92.7101 7.4781ZM94.5255 19.3591L93.5669 13.4414L92.6029 19.3591H94.5255ZM98.2663 19.833V14.5392C98.2663 11.6848 99.3106 9.98711 102.339 9.98711C105.368 9.98711 106.396 11.6767 106.396 14.5392V19.833C106.396 22.6687 105.352 24.4441 102.339 24.4441C99.3267 24.4441 98.2663 22.6875 98.2663 19.833ZM103.785 20.4302V13.9501C103.785 12.7666 103.592 11.8776 102.339 11.8776C101.086 11.8776 100.877 12.7666 100.877 13.9501V20.4302C100.877 21.5977 101.07 22.5375 102.339 22.5375C103.608 22.5375 103.785 21.6084 103.785 20.4302ZM111.251 19.7447V14.7159C111.251 11.8267 112.172 9.99782 115.267 9.99782C118.159 9.99782 119.08 11.6044 119.08 14.0546V15.2381H116.609V14.0197C116.609 12.8362 116.59 11.8776 115.286 11.8776C113.982 11.8776 113.84 12.8871 113.84 14.175V20.2856C113.84 21.8172 114.153 22.5482 115.286 22.5482C116.555 22.5482 116.609 21.5548 116.609 20.3016V19.0324H119.08V20.1624C119.08 22.6527 118.245 24.4467 115.267 24.4467C112.172 24.4467 111.251 22.4947 111.251 19.7447ZM120.127 19.833V14.5392C120.127 11.6848 121.171 9.98711 124.2 9.98711C127.228 9.98711 128.254 11.6767 128.254 14.5392V19.833C128.254 22.6687 127.21 24.4441 124.2 24.4441C121.19 24.4441 120.127 22.6875 120.127 19.833ZM125.643 20.4409V13.9501C125.643 12.7666 125.453 11.8776 124.2 11.8776C122.947 11.8776 122.738 12.7666 122.738 13.9501V20.4302C122.738 21.5977 122.928 22.5375 124.2 22.5375C125.472 22.5375 125.643 21.6084 125.643 20.4302V20.4409ZM129.63 10.1558H131.43L134.86 18.1889V10.1558H136.983V24.2539H135.278L131.823 15.8299V24.2539H129.63V10.1558ZM139.998 12.0516H137.752V10.1558H144.767V12.0516H142.574V24.2539H139.998V12.0516ZM145.539 10.1558H148.931C151.751 10.1558 153.352 11.0609 153.352 13.9046C153.352 15.5942 152.934 16.7778 151.612 17.316L153.58 24.262H151.004L149.314 17.8033H148.096V24.262H145.539V10.1558ZM148.915 16.194C150.393 16.194 150.934 15.5514 150.934 14.0358C150.934 12.6086 150.533 11.9124 149.06 11.9124H148.101V16.1967L148.915 16.194ZM156.887 10.1558H159.637L162.456 24.2539H160.081L159.524 20.9979H157.071L156.496 24.2539H154.086L156.887 10.1558ZM159.235 19.3591L158.279 13.4414L157.321 19.3591H159.235ZM169.156 10.1558H171.906L174.726 24.2539H172.342L171.786 20.9979H169.33L168.757 24.2539H166.347L169.156 10.1558ZM171.507 19.3591L170.548 13.4414L169.592 19.3591H171.507ZM72.9245 33.1841H75.6022L77.6024 42.947L79.675 33.1841H82.267L82.5348 47.2822H80.6202L80.4113 37.4818L78.4084 47.2822H76.8607L74.823 37.447L74.6328 47.2822H72.6808L72.9245 33.1841ZM83.9781 42.7221V33.1841H86.4844V43.0167C86.4844 44.3555 86.6397 45.5578 87.9464 45.5578C89.2531 45.5578 89.4245 44.3582 89.4245 43.0167V33.1841H91.9148V42.7221C91.9148 45.681 91.0954 47.4724 87.9464 47.4724C84.7974 47.4724 83.9781 45.681 83.9781 42.7221ZM93.4063 33.1841H96.7293C100.159 33.1841 101.204 34.5578 101.204 37.5702V42.7034C101.204 45.8015 100.133 47.2822 96.8337 47.2822H93.4063V33.1841ZM96.7641 45.5016C98.5234 45.5016 98.593 44.5617 98.593 42.8051V37.3961C98.593 35.7065 98.4189 35.0103 96.7186 35.0103H95.9528V45.4882L96.7641 45.5016ZM104.586 33.1841H107.33L110.15 47.2822H107.764L107.207 44.0261H104.76L104.184 47.2822H101.774L104.586 33.1841ZM106.934 42.3874L105.991 36.4723L105.019 42.3874H106.934ZM111.042 33.1841H112.836L116.263 41.2172V33.1841H118.387V47.2822H116.681L113.235 38.8582V47.2822H111.042V33.1841ZM125.14 38.2664V37.048C125.14 35.8645 125.124 34.9059 123.817 34.9059C122.51 34.9059 122.374 35.9154 122.374 37.2033V43.3139C122.374 44.8455 122.687 45.5765 123.817 45.5765C125.089 45.5765 125.14 44.5831 125.14 43.3299V42.0607H127.611V43.1907C127.611 45.5765 126.845 47.3331 124.149 47.475V48.3453C125.437 48.3453 126.307 48.921 126.307 50.0001C126.307 51.2345 125.209 51.7567 123.94 51.7567C123.516 51.7525 123.094 51.6885 122.687 51.5666V50.4687C122.991 50.5634 123.308 50.6104 123.627 50.608C124.235 50.608 124.698 50.4339 124.698 49.9653C124.698 49.3387 123.986 49.1111 123.166 49.0254V47.4402C120.59 47.1725 119.79 45.3168 119.79 42.7757V37.7442C119.79 34.855 120.714 33.0261 123.806 33.0261C126.696 33.0261 127.617 34.6327 127.617 37.0829V38.2664H125.14ZM130.988 33.1841H133.738L136.558 47.2822H134.174L133.617 44.0261H131.162L130.586 47.2822H128.176L130.988 33.1841ZM133.336 42.3874L132.38 36.4697L131.43 42.3874H133.336ZM140.925 42.6337V37.8996C140.925 34.8711 141.849 33.0261 144.941 33.0261C147.831 33.0261 148.84 34.523 148.84 37.1337V37.8647H146.385V37.0614C146.385 35.7038 146.245 34.9032 144.976 34.9032C143.619 34.9032 143.514 36.0011 143.514 37.289V43.18C143.514 44.642 143.782 45.5658 145.046 45.5658C146.31 45.5658 146.594 44.5911 146.594 43.0595V41.7367H145.086V40.1167H148.915V47.2715H147.244L147.07 45.8952C146.687 46.8003 145.999 47.4617 144.684 47.4617C141.9 47.475 140.925 45.6006 140.925 42.6337ZM150.358 33.1841H152.918V45.523H156.346V47.2822H150.358V33.1841ZM156.764 42.8614V37.5675C156.764 34.7131 157.808 33.0154 160.836 33.0154C163.865 33.0154 164.901 34.7158 164.901 37.5675V42.8587C164.901 45.6944 163.857 47.4697 160.844 47.4697C157.832 47.4697 156.764 45.7158 156.764 42.8614ZM162.282 43.4585V36.9784C162.282 35.7949 162.09 34.9059 160.836 34.9059C159.583 34.9059 159.374 35.7949 159.374 36.9784V43.4585C159.374 44.626 159.567 45.5658 160.836 45.5658C162.106 45.5658 162.282 44.6367 162.282 43.4585ZM166.267 33.1841H169.748C172.219 33.1841 173.874 34.0196 173.874 36.8044C173.874 38.5261 173.159 39.4821 171.836 39.6936C173.491 40.0069 174.273 41.1905 174.273 43.1746C174.273 45.8711 172.95 47.2822 170.34 47.2822H166.267V33.1841ZM169.721 38.9439C171.253 38.9439 171.654 38.2664 171.654 36.8392C171.654 35.3423 170.923 34.9648 169.357 34.9648H168.821V38.9332L169.721 38.9439ZM169.825 45.4721C171.392 45.4721 171.828 44.7411 171.828 43.1559C171.828 41.485 171.271 40.7192 169.74 40.7192H168.835V45.4721H169.825ZM177.529 33.1841H180.279L183.11 47.2822H180.724L180.164 44.0261H177.711L177.136 47.2822H174.726L177.529 33.1841ZM179.878 42.3874L178.922 36.4697L177.963 42.3874H179.878ZM183.985 33.1841H186.545V45.523H189.973V47.2822H183.985V33.1841ZM72.7156 56.2124H76.0413C79.4688 56.2124 80.5131 57.5861 80.5131 60.5985V65.7317C80.5131 68.8298 79.442 70.3105 76.1457 70.3105H72.7156V56.2124ZM76.0761 68.5165C77.8327 68.5165 77.9023 67.5766 77.9023 65.82V60.4244C77.9023 58.7348 77.7283 58.0386 76.0413 58.0386H75.2755V68.5165H76.0761ZM81.6618 65.8896V60.5958C81.6618 57.7414 82.7061 56.0437 85.7346 56.0437C88.7631 56.0437 89.7914 57.7333 89.7914 60.5958V65.887C89.7914 68.7227 88.747 70.498 85.7346 70.498C82.7222 70.498 81.6618 68.7441 81.6618 65.8896ZM87.1806 66.4868V60.0067C87.1806 58.8232 86.9878 57.9342 85.7346 57.9342C84.4815 57.9342 84.2726 58.8232 84.2726 60.0067V66.4868C84.2726 67.6543 84.4654 68.5941 85.7346 68.5941C87.0039 68.5941 87.1806 67.665 87.1806 66.4868ZM94.646 65.8013V60.7725C94.646 57.8833 95.5698 56.0544 98.6626 56.0544C101.552 56.0544 102.473 57.661 102.473 60.1112V61.2947H100.001V60.0763C100.001 58.8928 99.9854 57.9342 98.6787 57.9342C97.3719 57.9342 97.2354 58.9437 97.2354 60.2316V66.3422C97.2354 67.8738 97.5487 68.6048 98.6787 68.6048C99.9506 68.6048 100.001 67.6114 100.001 66.3582V65.089H102.473V66.219C102.473 68.7093 101.638 70.5033 98.6626 70.5033C95.5698 70.5033 94.646 68.5513 94.646 65.8013ZM103.748 56.2124H106.307V68.5513H109.74V70.3105H103.748V56.2124ZM110.624 56.2124H113.165V70.3105H110.624V56.2124ZM115.026 56.2124H117.69L119.691 65.9753L121.763 56.2124H124.355L124.623 70.3105H122.708L122.5 60.5101L120.497 70.3105H118.949L116.911 60.4753L116.721 70.3105H114.788L115.026 56.2124ZM128.289 56.2124H131.039L133.858 70.3105H131.475L130.918 67.0545H128.463L127.89 70.3105H125.48L128.289 56.2124ZM130.64 65.4157L129.681 59.498L128.725 65.4157H130.64ZM179.784 118.651C174.675 111.472 151.563 82.7726 108.53 82.7137C65.4965 82.6548 42.3049 111.285 37.1744 118.458C36.9548 118.764 36.7674 119.031 36.612 119.262C36.7674 119.495 36.9521 119.76 37.1717 120.065C42.2861 127.247 65.3921 155.946 108.434 156C151.475 156.053 174.653 127.423 179.781 120.255C180.006 119.945 180.191 119.682 180.338 119.452C180.191 119.227 180.006 118.962 179.784 118.649M84.4975 100.804C84.8858 100.237 86.1764 98.6139 86.3344 98.3944C86.6665 97.9686 87.3252 97.8829 87.7858 97.7999C88.2463 97.7169 88.8568 97.9713 88.9238 98.314C88.9907 98.6568 88.747 99.9903 88.5194 100.221C87.8875 100.874 86.2434 101.795 85.3383 101.65C84.6394 101.541 84.3636 100.997 84.4975 100.791M82.9632 103.86C83.0301 103.779 83.0917 103.712 83.1185 103.68C83.654 103.064 84.7385 102.933 85.4829 102.818C86.2273 102.703 87.2234 103.067 87.3439 103.565C87.4644 104.063 85.4695 104.96 85.1054 105.298C84.0691 106.251 82.4437 108.192 81.4958 108.398C81.2365 108.464 80.9622 108.436 80.722 108.318C81.3431 106.772 82.0928 105.28 82.9632 103.86ZM99.0294 136.924C98.443 139.216 97.7629 140.041 97.1818 140.761C96.6008 141.481 94.4532 142.421 93.0903 142.32C91.7273 142.218 91.5426 138.571 91.5452 136.696C91.5452 136.048 90.6295 137.966 90.1555 134.069C89.8556 131.574 88.249 134.337 88.1392 132.664C88.0294 130.99 87.2288 131.325 86.388 130.294C85.5472 129.263 84.5136 130.393 83.3381 130.915C82.1626 131.437 82.6526 131.718 81.0004 131.183C80.9576 131.183 80.9362 131.159 80.896 131.143C79.3406 127.448 78.5447 123.479 78.5557 119.471C78.5557 118.458 78.6119 117.465 78.7083 116.48C78.762 116.385 78.8238 116.296 78.8931 116.212C80.4836 114.337 80.4488 113.898 80.4488 113.898L82.2027 113.293C83.8711 113.562 85.5133 113.974 87.111 114.525C88.8488 115.181 91.5854 116.667 93.176 116.011C94.3274 115.537 95.2298 114.91 95.1227 113.952C94.9941 112.75 94.0516 112.463 92.9002 113.272C92.4771 113.569 91.5801 111.459 90.8731 111.563C90.1662 111.668 91.7434 114.046 91.1409 114.145C90.5384 114.244 89.3361 111.668 89.13 111.25C88.9238 110.832 87.9973 109.799 87.1592 110.586C85.3892 112.265 82.5187 112.158 81.9403 112.589C80.1837 113.901 79.7232 112.155 79.7633 111.092C79.833 110.848 79.9053 110.602 79.9829 110.364C80.5586 109.732 82.6151 109.526 83.322 109.997C84.0959 110.516 84.6609 109.866 84.9554 109.552C85.25 109.239 85.1562 108.749 84.9554 108.334C84.7546 107.919 85.3437 107.611 85.7453 107.507C86.147 107.402 87.4885 106.465 88.0214 106.154C88.5543 105.844 91.331 105.512 92.5735 106.136C93.065 106.397 93.6317 106.48 94.1774 106.37C94.7231 106.261 95.2142 105.966 95.5672 105.536C96.1791 104.809 96.9153 104.196 97.7415 103.726C98.1779 103.525 96.6704 102.119 95.436 103.648C94.2015 105.177 93.5616 105.308 92.9805 105.308C92.3994 105.308 88.9398 104.438 88.5141 103.343C88.0883 102.248 89.5852 101.434 90.8785 100.818C92.1718 100.202 95.6502 100.223 96.5445 100.014C98.36 99.6181 100.684 98.7077 101.854 99.5056C103.025 100.304 96.9649 101.661 98.9518 102.738C99.6587 103.126 102.861 100.901 103.956 100.328C106.538 99.0022 101.461 98.555 102.122 95.8532C102.872 92.798 95.8965 93.9788 92.4182 94.2252C96.4478 91.6556 101.034 90.0869 105.793 89.6498C110.552 89.2127 115.347 89.9199 119.777 91.7125C124.207 93.5051 128.145 96.3311 131.261 99.9548C134.377 103.578 136.581 107.895 137.69 112.543C137.706 113.01 137.657 113.477 137.543 113.93C137.275 115.002 135.219 115.936 134.03 114.198C133.73 113.759 132.445 112.543 132.485 114.619C132.525 116.694 134.501 116.913 132.584 118.159C130.667 119.404 130.316 119.101 129.429 119.414C128.543 119.728 127.686 121.864 127.895 123.011C128.104 124.157 130.841 127.295 128.811 127.153C128.334 127.115 124.754 124.665 124.165 123.091C123.544 121.433 122.866 119.811 122.384 118.56C121.902 117.31 120.633 116.996 119.559 117.727C118.486 118.458 119.857 119.187 119.085 120.748C118.314 122.309 117.771 123.693 116.646 122.408C113.725 119.05 109.47 120.697 108.808 116.967C108.45 114.943 106.709 115.135 105.252 113.987C103.796 112.838 102.976 112.225 102.73 113.049C102.51 113.772 107.306 117.583 107.646 118.56C108.152 120.009 106.206 121.283 104.778 121.623C103.351 121.964 102.738 120.82 101.343 119.366C99.9479 117.912 99.3374 116.871 99.2383 118.011C99.0964 119.661 100.561 122.087 101.983 122.994C103.193 123.763 104.554 124.114 104.157 125.359C103.761 126.604 104.157 125.894 102.789 127.233C101.421 128.572 101.166 129.019 101.263 130.883C101.359 132.747 100.872 132.865 100.577 134.42C100.283 135.976 99.6078 134.629 99.0187 136.911M131.194 125C132.204 124.92 133.714 126.318 133.122 126.853C132.53 127.389 131.02 127.188 130.265 126.585C129.51 125.983 130.742 125.027 131.194 124.992M129.922 124.068C129.598 123.948 129.314 123.64 129.071 122.903C128.827 122.167 129.446 121.749 130.051 122.047C130.656 122.344 131.462 123.278 131.462 123.768C131.462 124.258 130.252 124.199 129.922 124.068ZM116.702 124.02C116.108 124.556 114.592 124.352 113.835 123.752C113.077 123.152 114.316 122.194 114.766 122.159C115.776 122.071 117.289 123.482 116.702 124.015M104.438 129.948C104.026 130.623 102.891 135.663 102.136 135.074C101.38 134.485 102.449 129.228 102.671 128.829C103.857 126.658 106.42 126.767 104.441 129.948M108.49 149.496C105.638 149.491 102.802 149.08 100.066 148.275C99.852 148.105 99.7006 147.869 99.6352 147.604C99.5698 147.339 99.5941 147.06 99.7042 146.81C100.636 144.4 103.399 143.45 105.582 143.243C110.442 142.775 116.828 146.414 117.846 145.83C118.863 145.246 120.922 142.577 123.94 142.692C125.997 142.775 125.981 143.12 126.671 143.38C121.448 147.363 115.056 149.512 108.487 149.496M129.641 140.796C129.317 140.71 129.003 140.594 128.701 140.448C127.065 139.612 127.261 140.943 126.455 140.649C125.649 140.354 127.368 138.482 124.947 140.06C122.526 141.637 123.19 139.813 122.143 137.143C121.096 134.474 123.362 131.435 125.271 130.752C127.876 129.812 129.494 129.622 130.715 129.322C134.319 128.428 135.082 126.291 135.735 127.592C135.859 127.836 135.976 128.069 136.084 128.286C136.376 128.897 136.533 129.563 136.544 130.24C135.023 134.211 132.676 137.813 129.657 140.807M137.891 125.683C137.088 125.461 133.727 120.804 136.392 117.743C136.836 117.24 135.503 115.759 135.856 115.73C137.313 115.617 138.087 116.533 138.467 117.826C138.494 118.4 138.518 118.978 138.515 119.564C138.511 121.62 138.299 123.67 137.88 125.683" fill="white"/>
</svg>
