<svg width="209" height="162" viewBox="0 0 209 162" fill="none" xmlns="http://www.w3.org/2000/svg">
<rect width="209" height="162" rx="24" fill="#C5192D"/>
<path d="M48.3839 37.5996H37.4643V32.2729L46.8303 10.0785H54.7759V32.4061H58.2826V37.5996H54.7759V46.0334H48.3839V37.5996ZM48.3839 32.4061V17.1364L42.8797 32.4061H48.3839ZM72.9988 10.0524H78.7693V11.8175H75.4845V15.7707H78.0643V17.5202H75.4845V22.0844H78.7928V23.7999H72.9988V10.0524ZM80.1688 10.0524H83.4092C86.754 10.0524 87.7724 11.3919 87.7724 14.3294V19.3349C87.7724 22.3559 86.7279 23.7999 83.511 23.7999H80.1688V10.0524ZM83.4432 22.0504C85.1587 22.0504 85.2265 21.1339 85.2265 19.4211V14.1597C85.2265 12.5121 85.0568 11.8332 83.3988 11.8332H82.6598V22.0504H83.4432ZM89.4487 19.3532V10.0524H91.8927V19.6404C91.8927 20.9459 92.0441 22.1183 93.3184 22.1183C94.5926 22.1183 94.7597 20.9486 94.7597 19.6404V10.0524H97.188V19.3532C97.188 22.2254 96.389 23.9853 93.3184 23.9853C90.2477 23.9853 89.4487 22.2384 89.4487 19.3532ZM98.8487 19.4028V14.4991C98.8487 11.6818 99.7364 9.88793 102.765 9.88793C105.583 9.88793 106.484 11.4546 106.484 13.8438V14.9979H104.071V13.8203C104.071 12.6661 104.053 11.7314 102.781 11.7314C101.509 11.7314 101.371 12.7158 101.371 13.9717V19.9302C101.371 21.4238 101.676 22.1366 102.781 22.1366C104.019 22.1366 104.071 21.1679 104.071 19.9459V18.7082H106.481V19.8101C106.481 22.2384 105.666 23.9879 102.763 23.9879C99.7364 23.9879 98.8487 22.0844 98.8487 19.4028ZM110.191 10.0524H112.873L115.622 23.7999H113.299L112.755 20.6248H110.361L109.815 23.7999H107.465L110.191 10.0524ZM112.484 19.0268L111.549 13.2563L110.617 19.0268H112.484ZM121.826 15.0083V13.8203C121.826 12.6661 121.811 11.7314 120.536 11.7314C119.262 11.7314 119.129 12.7158 119.129 13.9717V19.9302C119.129 21.4238 119.435 22.1366 120.536 22.1366C121.777 22.1366 121.826 21.1679 121.826 19.9459V18.7082H124.236V19.8101C124.236 22.1366 123.49 23.8495 120.86 23.9879V24.8365C122.116 24.8365 122.965 25.3979 122.965 26.4502C122.965 27.6539 121.894 28.163 120.657 28.163C120.243 28.159 119.831 28.0966 119.435 27.9776V26.9071C119.731 26.9995 120.04 27.0453 120.351 27.0429C120.944 27.0429 121.396 26.8732 121.396 26.4162C121.396 25.8052 120.701 25.5833 119.902 25.4997V23.9539C117.39 23.6928 116.609 21.8833 116.609 19.4054V14.4991C116.604 11.6818 117.508 9.88793 120.521 9.88793C123.338 9.88793 124.236 11.4546 124.236 13.8438V14.9979L121.826 15.0083ZM127.962 10.0524H130.644L133.394 23.7999H131.067L130.524 20.6248H128.132L127.571 23.7999H125.221L127.962 10.0524ZM128.485 7.44133C128.043 7.44133 127.892 7.70244 127.892 8.13849H126.704C126.704 6.9165 127.043 6 128.145 6C128.978 6 129.537 6.78333 130.268 6.78333C130.657 6.78333 130.811 6.54572 130.811 6.10444H131.931C131.931 7.17238 131.743 8.24294 130.641 8.24294C129.762 8.25338 129.184 7.45438 128.487 7.45438L128.485 7.44133ZM130.252 19.0268L129.32 13.2563L128.385 19.0268H130.252ZM134.326 19.489V14.3268C134.326 11.5434 135.344 9.88793 138.297 9.88793C141.25 9.88793 142.253 11.5355 142.253 14.3268V19.489C142.253 22.2541 141.235 23.9853 138.297 23.9853C135.36 23.9853 134.326 22.2724 134.326 19.489ZM139.707 20.0712V13.7524C139.707 12.5983 139.519 11.7314 138.297 11.7314C137.075 11.7314 136.872 12.5983 136.872 13.7524V20.0712C136.872 21.2097 137.06 22.1262 138.297 22.1262C139.535 22.1262 139.707 21.2201 139.707 20.0712ZM72.9988 32.5079H76.2417C79.584 32.5079 80.6023 33.8474 80.6023 36.7849V41.7904C80.6023 44.8114 79.5578 46.2554 76.3436 46.2554H72.9988V32.5079ZM76.2757 44.519C77.9886 44.519 78.0565 43.6025 78.0565 41.8896V36.6152C78.0565 34.9676 77.8867 34.2887 76.2287 34.2887H75.4819V44.5059L76.2757 44.519ZM82.3569 32.5079H88.1275V34.273H84.8532V38.2262H87.4329V39.9757H84.8532V44.5399H88.1614V46.2554H82.3569V32.5079ZM97.6162 46.4251C97.5202 46.4385 97.4233 46.4438 97.3264 46.4408C94.3576 46.4434 93.3653 44.7279 93.3653 41.9444V36.7823C93.3653 33.9988 94.3837 32.3434 97.3368 32.3434C100.29 32.3434 101.293 33.991 101.293 36.7823V41.9418C101.293 43.9106 100.77 45.3702 99.3918 46.0151C99.7841 46.5197 100.247 46.9655 100.765 47.339L100.29 49.0022C99.4492 48.6132 98.2951 47.4434 97.6162 46.4251ZM98.7521 42.5267V36.2078C98.7521 35.0537 98.5484 34.1868 97.3264 34.1868C96.1044 34.1868 95.9007 35.0537 95.9007 36.2078V42.5267C95.9007 43.6651 96.0887 44.5816 97.3264 44.5816C98.5641 44.5816 98.7521 43.6756 98.7521 42.5267ZM102.961 41.8087V32.5079H105.405V42.0959C105.405 43.4014 105.559 44.5738 106.831 44.5738C108.102 44.5738 108.275 43.404 108.275 42.0959V32.5079H110.7V41.8087C110.7 44.6939 109.904 46.4408 106.831 46.4408C103.758 46.4408 102.961 44.6939 102.961 41.8087ZM114.57 32.5079H117.252L119.999 46.2554H117.675L117.126 43.0803H114.732L114.173 46.2554H111.823L114.57 32.5079ZM116.865 41.4823L115.93 35.7117L114.996 41.4823H116.865ZM121.304 32.5079H123.8V44.5399H127.143V46.2554H121.304V32.5079ZM128.419 32.5079H130.897V46.2554H128.419V32.5079ZM132.934 32.5079H136.187C139.53 32.5079 140.548 33.8474 140.548 36.7849V41.7904C140.548 44.8114 139.504 46.2554 136.289 46.2554H132.934V32.5079ZM136.211 44.519C137.924 44.519 137.992 43.6025 137.992 41.8896V36.6152C137.992 34.9676 137.822 34.2887 136.164 34.2887H135.43V44.5059L136.211 44.519ZM144.256 32.5079H146.937L149.687 46.2554H147.36L146.817 43.0803H144.423L143.864 46.2554H141.514L144.256 32.5079ZM146.546 41.4823L145.614 35.7117L144.679 41.4823H146.546ZM150.974 32.5079H154.217C157.562 32.5079 158.58 33.8474 158.58 36.7849V41.7904C158.58 44.8114 157.536 46.2554 154.319 46.2554H150.974V32.5079ZM154.251 44.519C155.964 44.519 156.032 43.6025 156.032 41.8896V36.6152C156.032 34.9676 155.865 34.2887 154.217 34.2887H153.47V44.5059L154.251 44.519ZM160.343 32.5079H166.113V34.273H162.839V38.2262H165.432V39.9757H162.852V44.5399H166.16V46.2554H160.343V32.5079ZM106.933 94.814L72.957 75.1968V138.66L106.933 148.908V94.814ZM110.669 94.9446V148.932L144.864 138.652V75.1994L110.669 94.9446ZM163.494 137.534L167.515 151.582L171.531 137.534V81.0718H163.494V137.534Z" fill="white"/>
<path d="M152.16 77.9229L148.52 75.0454V140.38L110.768 152.577H106.933L69.3512 142.078V75.0454L65.7061 77.9229V144.634L106.76 156H110.941L148.815 143.973L152.16 142.989V77.9229ZM171.534 73.5989C171.548 73.0624 171.454 72.5286 171.258 72.0289C171.062 71.5292 170.768 71.0738 170.394 70.6896C170.019 70.3053 169.571 69.9998 169.077 69.7913C168.582 69.5828 168.051 69.4753 167.514 69.4753C166.978 69.4753 166.446 69.5828 165.952 69.7913C165.457 69.9998 165.01 70.3053 164.635 70.6896C164.26 71.0738 163.966 71.5292 163.771 72.0289C163.575 72.5286 163.481 73.0624 163.494 73.5989V77.9333H171.534V73.5989Z" fill="white"/>
</svg>
